<?xml version="1.0" encoding="utf-8"?>
<!-- Generator: Adobe Illustrator 26.0.1, SVG Export Plug-In . SVG Version: 6.00 Build 0)  -->
<svg version="1.1" id="Calque_1" xmlns="http://www.w3.org/2000/svg" xmlns:xlink="http://www.w3.org/1999/xlink" x="0px" y="0px"
	 viewBox="0 0 595.28 841.89" style="enable-background:new 0 0 595.28 841.89;" xml:space="preserve">
<style type="text/css">
	.st0{fill:none;}
	.st1{fill:#8EC045;}
	.st2{fill:#025338;}
	.st3{fill:#8EC045;stroke:#FFFFFF;stroke-width:0.25;stroke-miterlimit:10;}
	.st4{font-family:'MyriadPro-Regular';}
	.st5{font-size:58.2979px;}
	.st6{fill:#025338;stroke:#FFFFFF;stroke-width:0.25;stroke-miterlimit:10;}
	.st7{fill:#8EC045;stroke:#FFFFFF;stroke-miterlimit:10;}
	.st8{fill:#025338;stroke:#FFFFFF;stroke-miterlimit:10;}
</style>
<g>
	<path class="st0" d="M380.64,383.21c-0.1-0.23-2.48-5.81-6.99-10.74c-2.33-2.54-4.77-4.43-7.3-5.67c2.51,1.25,4.93,3.13,7.24,5.65
		c4.51,4.92,6.89,10.5,6.99,10.74l1.95,4.63l0.06,0.03L380.64,383.21z"/>
	<path class="st0" d="M364.26,383.52c5.03,0.2,10.73,0.41,13.85,2.02l-0.05-0.03c-3.12-1.61-8.83-1.83-13.86-2.02
		c-2.96-0.11-5.76-0.22-7.88-0.61c-0.69-0.13-1.35-0.34-1.99-0.64c0.66,0.32,1.34,0.54,2.05,0.67
		C358.5,383.29,361.3,383.4,364.26,383.52z"/>
	<path class="st0" d="M342.37,361.67c-0.09-0.32-0.18-0.63-0.26-0.91c-0.28-1-0.53-2-0.75-2.96c-0.95-4.17-1.31-8.08-1.08-11.63
		c0.23-3.65,1.11-7.18,2.69-10.8c1.53-3.53,3.65-7,5.87-10.55c0.96-1.52,1.94-3.08,2.91-4.67c1.17,0.51,2.31,1.07,3.43,1.66
		c-1.14-0.6-2.3-1.16-3.49-1.69c-0.98,1.59-1.96,3.15-2.91,4.67c-2.22,3.54-4.34,7.02-5.87,10.55c-1.58,3.61-2.46,7.14-2.69,10.8
		c-0.23,3.55,0.13,7.46,1.08,11.63c0.22,0.96,0.47,1.96,0.75,2.96c0.08,0.29,0.17,0.59,0.26,0.91c0.22,0.75,0.46,1.56,0.65,2.35
		c0.28,1.14,0.56,2.49,0.71,3.98c0.02,0,0.04,0,0.05,0c-0.15-1.47-0.43-2.82-0.7-3.95C342.82,363.23,342.59,362.42,342.37,361.67z"
		/>
	<path class="st0" d="M373.16,532.55c6.05,0.16,12.28-1.02,18.57-3.44c0.01-0.02,0.02-0.04,0.03-0.06
		c-6.32,2.45-12.58,3.63-18.65,3.47c-6.41-0.12-12.88-1.83-18.7-4.95c0,0,0.01,0,0.01,0C360.25,530.71,366.73,532.43,373.16,532.55z
		"/>
	<path class="st0" d="M319.6,403.85c2.23-3.1,4.84-6.23,8.23-9.86c1.31-1.42,2.67-2.82,3.99-4.19c1.65-1.7,3.35-3.45,5-5.28
		c1.44-1.62,2.96-3.41,4.26-5.49c0.91-1.43,2-3.58,2.48-6.13c0.63-0.09,2.03-0.26,3.93-0.31c0-0.01-0.01-0.02-0.01-0.03
		c-1.93,0.05-3.34,0.22-3.98,0.32c-0.47,2.55-1.57,4.7-2.48,6.13c-1.3,2.07-2.82,3.86-4.26,5.49c-1.65,1.83-3.35,3.58-5,5.28
		c-1.32,1.36-2.69,2.77-3.99,4.19c-3.39,3.63-6,6.76-8.23,9.86c-0.27,0.38-0.78,0.48-1.18,0.26c0,0,0.01,0.01,0.01,0.01
		C318.78,404.35,319.32,404.25,319.6,403.85z"/>
	<path class="st0" d="M348.14,365.76c2.6-2.88,5.42-5.3,8.36-7.19c3.07-1.98,6.27-3.38,9.52-4.17c3.19-0.78,6.5-0.95,9.62-0.5
		c1.52,0.22,3.03,0.59,4.49,1.1c0.51,0.18,1.05,0.39,1.63,0.64c-0.01-0.01-0.01-0.01-0.02-0.01c-0.6-0.26-1.15-0.48-1.67-0.66
		c-1.46-0.51-2.97-0.88-4.49-1.1c-3.13-0.45-6.43-0.28-9.62,0.5c-3.25,0.79-6.45,2.19-9.52,4.17c-2.95,1.89-5.76,4.31-8.36,7.19
		c-0.29,0.32-0.77,0.39-1.14,0.17c0,0,0,0,0.01,0.01C347.32,366.16,347.83,366.1,348.14,365.76z"/>
	<path class="st0" d="M341.13,514.57c-0.02-0.01-0.04-0.02-0.05-0.03c1.96,1.49,4.57,3.4,7.34,5.03c0.62,0.37,1.26,0.73,1.91,1.06
		c-0.63-0.33-1.25-0.68-1.85-1.04C345.71,517.97,343.1,516.06,341.13,514.57z"/>
	<path class="st0" d="M320.87,306.49c4.78,0.03,9.37,1.14,13.58,3.24c-4.22-2.12-8.84-3.23-13.63-3.27
		c-3.26-0.02-6.5,0.47-9.63,1.47l-1.65,254.5c0.02,0.01,0.04,0.02,0.06,0.03l1.65-254.5C314.37,306.96,317.61,306.47,320.87,306.49z
		"/>
	<path class="st0" d="M383.08,433.8c0.21-0.09,5.26-2.24,9.72-6.33c7.33-6.72,8.73-14.51,4.07-22.56c0.03-1,0.08-3.17-0.04-4.85
		c2.64,0.24,5.13,0.91,7.31,2.01c-2.19-1.11-4.71-1.8-7.37-2.04c0.12,1.68,0.07,3.85,0.04,4.85c4.66,8.05,3.26,15.84-4.07,22.56
		c-4.46,4.08-9.51,6.24-9.72,6.33l-4.1,1.73l-0.04,0.07L383.08,433.8z"/>
	<path class="st0" d="M384.09,356.86c-0.66-0.35-1.34-0.69-2.02-1.01c0,0,0,0,0,0C382.75,356.17,383.42,356.51,384.09,356.86z"/>
	<path class="st0" d="M323.2,460.58c4.54-2.09,8.92-5.37,13.4-10.03c4.09-4.26,7.59-8.93,10.47-12.94c1.54-2.15,3.05-4.32,4.56-6.48
		c1.58-2.28,3.22-4.63,4.85-6.89c0.78-1.09,1.58-2.18,2.37-3.22l1.22-1.6l1.2-1.49c1.57-1.87,3.36-3.7,5.31-5.45
		c3.88-3.45,8.09-6.3,12.51-8.46c4.59-2.24,9.03-3.56,13.24-3.94c0-0.01,0-0.02-0.01-0.03c-4.22,0.37-8.68,1.69-13.29,3.94
		c-4.42,2.16-8.62,5.01-12.51,8.46c-1.96,1.75-3.75,3.58-5.31,5.45l-1.2,1.49l-1.22,1.6c-0.79,1.04-1.59,2.14-2.37,3.22
		c-1.64,2.27-3.27,4.62-4.85,6.89c-1.5,2.16-3.01,4.33-4.56,6.48c-2.88,4-6.38,8.67-10.47,12.94c-4.48,4.66-8.86,7.94-13.4,10.03
		c-0.22,0.1-0.45,0.11-0.67,0.04C322.7,460.68,322.96,460.69,323.2,460.58z"/>
	<path class="st0" d="M320.48,420.61c2.97-0.33,7.58,1.24,11.64,2.61c2.39,0.81,4.65,1.58,6.46,1.92c1.57,0.29,3.2,0.03,4.84-0.79
		c2.7-1.35,4.7-3.86,5.33-4.72c0.87,0.36,1.58,0.7,2.13,0.97c0,0,0,0,0,0c-0.56-0.28-1.29-0.63-2.19-1
		c-0.63,0.86-2.63,3.37-5.33,4.72c-1.64,0.82-3.27,1.08-4.84,0.79c-1.8-0.34-4.06-1.11-6.46-1.92c-4.06-1.38-8.67-2.94-11.64-2.61
		l-4.16,0.46l-0.04,0.04L320.48,420.61z"/>
	<path class="st0" d="M343.5,410.8c2.04,1.06,3.93,2.66,5.64,4.77c0.01,0,0.03,0.01,0.05,0.02
		C347.47,413.46,345.56,411.86,343.5,410.8z"/>
	<path class="st0" d="M241.87,519.89c0,0,0.19,0.9,0.47,2.02C242.07,520.77,241.87,519.89,241.87,519.89z"/>
	<path class="st0" d="M376.75,470.35c-1.2-0.8-2.36-1.65-3.59-2.54c-1.64-1.19-3.33-2.42-5.16-3.57c-0.49-0.3-1.09-0.65-1.76-0.99
		c0.65,0.33,1.23,0.67,1.7,0.96c1.83,1.14,3.52,2.38,5.16,3.57c1.23,0.9,2.4,1.75,3.59,2.54c1.55,1.04,3.02,1.91,4.44,2.62
		C379.73,472.24,378.27,471.38,376.75,470.35z"/>
	<path class="st0" d="M343.34,495.08c0.17,0.11,0.31,0.26,0.38,0.46c0.15,0.41-0.02,0.87-0.4,1.09c-4.93,2.88-8.59,5.62-11.54,8.62
		c-3.43,3.48-5.84,7.26-7.18,11.26c-0.19,0.56-0.35,1.07-0.47,1.57l-0.19,0.77c-0.06,0.3-0.13,0.59-0.17,0.83
		c-0.2,0.99-0.33,2.1-0.38,3.23c-0.09,2.16,0.12,4.37,0.64,6.56c0.93,3.95,2.93,8.12,6.12,12.75c0.25,0.36,0.21,0.85-0.1,1.16
		c-0.18,0.18-0.42,0.27-0.65,0.27c-0.16,0-0.31-0.05-0.45-0.13c0,0,0.01,0,0.01,0.01c0.15,0.1,0.33,0.15,0.5,0.15
		c0.24,0,0.48-0.09,0.65-0.27c0.31-0.31,0.35-0.8,0.1-1.16c-3.19-4.64-5.19-8.81-6.12-12.75c-0.52-2.19-0.74-4.4-0.64-6.56
		c0.05-1.13,0.18-2.24,0.38-3.23c0.04-0.23,0.1-0.53,0.17-0.83l0.19-0.77c0.13-0.49,0.28-1.01,0.47-1.57
		c1.34-3.99,3.75-7.78,7.18-11.26c2.94-3,6.61-5.74,11.54-8.62c0.38-0.22,0.55-0.68,0.4-1.09
		C343.69,495.35,343.53,495.18,343.34,495.08z"/>
	<path class="st0" d="M406.88,424.04c2,4.52,3.01,9.5,2.93,14.4c-0.07,3.97-0.96,9.74-4.78,14.73c-1.71,2.22-3.87,4.06-6.24,5.31
		c-2.35,1.25-5.04,2-7.77,2.18c-0.52,0.03-1.03,0.05-1.54,0.04c0,0,0,0,0,0c-3.79-0.02-7.67-1.02-11.33-2.9
		c3.67,1.9,7.58,2.9,11.39,2.93c0,0,0,0,0,0c0.51,0,1.02-0.01,1.54-0.04c2.73-0.18,5.42-0.93,7.77-2.18
		c2.38-1.25,4.53-3.09,6.24-5.31c3.82-4.99,4.71-10.77,4.78-14.73c0.09-4.89-0.93-9.87-2.93-14.4c-0.09-0.21-0.26-0.36-0.45-0.45
		C406.66,423.7,406.8,423.85,406.88,424.04z"/>
	<path class="st0" d="M349.01,470.22c1.13-1.43,2.34-2.54,3.59-3.31c1.29-0.8,2.79-1.31,4.35-1.47c0.75-0.08,1.51-0.08,2.37-0.02
		c0.72,0.04,1.4,0.17,2.1,0.4c0.29,0.1,0.58,0.22,0.88,0.36c-0.31-0.15-0.62-0.28-0.94-0.38c-0.69-0.23-1.38-0.36-2.1-0.4
		c-0.85-0.06-1.61-0.05-2.37,0.02c-1.56,0.16-3.06,0.67-4.35,1.47c-1.25,0.77-2.46,1.88-3.59,3.31c-0.29,0.36-0.79,0.44-1.18,0.21
		c0,0,0,0.01,0.01,0.01C348.17,470.68,348.71,470.6,349.01,470.22z"/>
	<path class="st0" d="M352.92,507.72c0.26,0.01,6.31,0.34,12.72-1.54c10.54-3.09,15.72-10.13,15.02-20.37
		c0.43-0.81,1.27-2.42,1.95-3.94c1.8,0.82,3.7,1.47,5.66,1.93l1.44,0.3c0.5,0.09,1.07,0.18,1.55,0.24c0.52,0.07,1.02,0.12,1.56,0.16
		c0.43,0.04,1.12,0.07,1.58,0.08l0.45,0.01c4.06,0.03,8.34-0.98,12.05-2.83c1.6-0.79,3.16-1.73,4.72-2.85c0-0.02,0-0.05,0.01-0.07
		c-1.58,1.14-3.16,2.1-4.78,2.9c-3.72,1.85-8,2.86-12.05,2.83l-0.45-0.01c-0.46-0.01-1.16-0.03-1.58-0.08
		c-0.54-0.04-1.04-0.09-1.56-0.16c-0.48-0.06-1.05-0.15-1.55-0.24l-1.44-0.3c-1.96-0.45-3.85-1.11-5.66-1.93
		c-0.68,1.51-1.52,3.13-1.95,3.94c0.7,10.25-4.48,17.28-15.02,20.37c-6.41,1.88-12.46,1.55-12.72,1.54l-4.92-0.29l-0.03,0.02
		L352.92,507.72z"/>
	<path class="st1" d="M330.74,292.32c0.64-3.35,2.84-11.59,9.55-16.82c0,0-6.15,6.12-7.97,13.75c0,0,3.31,0.19,5.93-1.1
		c1.07-0.52,2.01-1.29,2.58-2.42c1.95-3.89,3.64-12.42,6.87-15.81c0,0-4.53,0.52-8.97,2.71c-5.16,2.54-10.21,7.34-7.84,16.21
		c0,0-0.58,1.72-1,3.29C330.17,292.19,330.45,292.26,330.74,292.32z"/>
	<path class="st1" d="M266.74,295.2c0.31-0.14,0.63-0.28,0.94-0.42c-0.72-1.77-1.72-3.78-1.72-3.78
		c1.31-10.41-5.14-15.08-11.39-17.16c-5.37-1.79-10.58-1.68-10.58-1.68c4.18,3.35,7.41,12.76,10.22,16.86
		c0.81,1.19,2.01,1.91,3.29,2.34c3.16,1.06,6.89,0.33,6.89,0.33c-3.24-8.37-11.16-14.36-11.16-14.36
		C261.85,282.36,265.59,291.69,266.74,295.2z"/>
	<path class="st1" d="M214.2,339.47c-2.93-0.97-10.06-3.91-13.96-10.54c0,0,4.77,6.24,11.41,8.77c0,0,0.56-2.95-0.29-5.45
		c-0.35-1.02-0.92-1.96-1.87-2.6c-3.26-2.21-10.72-4.72-13.39-8.02c0,0-0.07,4.13,1.38,8.37c1.68,4.94,5.39,10.02,13.63,8.95
		c0,0,1.42,0.7,2.75,1.25C213.96,339.95,214.09,339.72,214.2,339.47z"/>
	<path class="st1" d="M174.66,413.94c-3.57-1.09-14.86-5.22-20.85-15.41c0,0,6.85,8.97,16.39,12.61c0,0,0.8-4.24-0.42-7.83
		c-0.5-1.46-1.33-2.82-2.68-3.73c-4.69-3.17-15.4-6.79-19.24-11.53c0,0-0.09,5.93,1.98,12.02c2.41,7.09,7.75,14.41,19.58,12.86
		c0,0,2.76,1.36,4.89,2.16C174.42,414.71,174.54,414.33,174.66,413.94z"/>
	<path class="st1" d="M152.57,486.14c0,0,10.94,2.79,20.68-0.26c0,0-2-3.82-5.18-5.89c-1.3-0.84-2.79-1.39-4.42-1.27
		c-5.64,0.42-16.29,4.21-22.24,2.87c0,0,3.6,4.71,9,8.21c6.28,4.07,15.01,6.51,23.33-2.04c0,0,3.04-0.65,5.21-1.34
		c-0.07-0.41-0.13-0.82-0.19-1.22C175.67,486.44,163.9,490.54,152.57,486.14z"/>
	<path class="st1" d="M232.87,586.66c0,0,7.08-3.17,11.02-8.97c0,0-2.71-1.2-5.3-0.95c-1.06,0.1-2.09,0.44-2.92,1.21
		c-2.86,2.64-6.97,9.23-10.74,11.05c0,0,3.95,1,8.35,0.57c5.12-0.49,10.85-2.91,11.68-11.07c0,0,1.56-1.89,2.4-3.22
		c-0.25-0.13-0.5-0.26-0.75-0.4C245.58,576.71,240.99,584.15,232.87,586.66z"/>
	<path class="st1" d="M408.71,525.51c3.79,0.3,15.62,1.91,23.64,10.49c0,0-8.64-7.26-18.74-8.74c0,0,0.14,4.31,2.11,7.55
		c0.8,1.32,1.91,2.46,3.43,3.06c5.27,2.07,16.51,3.27,21.28,7.06c0,0-1.2-5.81-4.55-11.31c-3.89-6.4-10.7-12.37-21.91-8.28
		c0,0-2.82-0.68-5.04-1.02C408.87,524.73,408.79,525.12,408.71,525.51z"/>
	<path class="st1" d="M447.19,470.39c0,0-8.51-1.72-15.87,1c0,0,1.68,2.86,4.2,4.32c1.03,0.6,2.19,0.96,3.44,0.8
		c4.32-0.54,12.35-3.86,16.97-3.06c0,0-2.95-3.48-7.23-5.96c-4.98-2.89-11.77-4.42-17.84,2.47c0,0-2.35,0.63-3.99,1.25
		c0.02,0.33,0.05,0.67,0.06,1C428.98,471.23,438.09,467.37,447.19,470.39z"/>
	<path class="st1" d="M456.1,394.95c-6.13-4.31-14.75-7.06-23.39,1.17c0,0-0.93,0.16-2.13,0.41v0l-0.01,0
		c-0.74,0.15-1.58,0.34-2.37,0.54l-2.79,0.63c-1.89-20.99-13.87-40.2-32.29-51.15c-0.18-0.11-0.32-0.28-0.39-0.48
		c-6.82-18.96-21.63-33.62-40.63-40.23c-0.12-0.04-0.24-0.11-0.33-0.2c-8.38-8.06-19.34-12.54-30.87-12.62
		c-5.79-0.04-11.48,1.05-16.93,3.24c-0.22,0.09-0.47,0.09-0.69,0c-5.42-2.25-11.1-3.42-16.89-3.45
		c-11.53-0.07-22.55,4.27-31.03,12.22c-0.1,0.09-0.21,0.16-0.34,0.2c-19.08,6.36-34.08,20.83-41.15,39.7
		c-0.07,0.2-0.21,0.36-0.4,0.47c-20.38,11.77-33.14,33.59-33.29,56.96c0,0.4,0.02,0.78,0.05,1.17c0.02,0.31,0.04,0.62,0.05,0.93
		c0,0.15-0.03,0.29-0.09,0.42c-4.37,9-6.62,18.56-6.69,28.4c-0.07,10.48,2.31,20.6,7.08,30.08c0.09,0.17,0.12,0.37,0.09,0.56
		c-0.62,3.83-0.92,7.08-0.94,10.23c-0.11,16.26,5.83,31.99,16.72,44.29c0.13,0.15,0.21,0.33,0.22,0.52
		c2.09,21.85,17.8,40.33,39.11,45.97c0.14,0.04,0.28,0.11,0.38,0.21c10.54,9.72,24.17,15.13,38.37,15.22
		c8.8,0.06,17.34-1.9,25.37-5.82c0.27-0.13,0.52-0.29,0.77-0.44c0.24-0.15,0.48-0.29,0.73-0.43c0.14-0.07,0.29-0.11,0.43-0.11
		c0.15,0,0.3,0.04,0.43,0.11c0.25,0.14,0.48,0.29,0.72,0.44c0.25,0.16,0.5,0.32,0.77,0.45c7.98,4.02,16.49,6.09,25.29,6.14
		c14.2,0.09,27.9-5.14,38.57-14.72c0.11-0.1,0.24-0.17,0.39-0.21c21.38-5.37,37.33-23.63,39.7-45.46c0.02-0.19,0.1-0.37,0.23-0.51
		c11.05-12.15,17.19-27.8,17.29-44.07c0.02-3.14-0.24-6.39-0.81-10.24c-0.03-0.19,0-0.38,0.09-0.55c4.89-9.41,7.4-19.5,7.46-29.98
		c0.06-9.84-2.06-19.42-6.32-28.48c-0.06-0.13-0.09-0.28-0.09-0.42c0.01-0.31,0.03-0.63,0.06-0.94c0.03-0.39,0.06-0.77,0.06-1.17
		c0.01-1.6-0.04-3.19-0.15-4.77c0.83-0.26,1.78-0.57,1.78-0.57c2.63-0.98,14.97-5.05,26.5-0.07c0,0-10.83-3.2-20.67-0.51
		c0,0,1.86,3.9,4.96,6.08c1.26,0.89,2.73,1.49,4.37,1.43c5.66-0.21,16.44-3.6,22.33-2.04C464.79,403.49,461.37,398.64,456.1,394.95z
		 M298.72,375.34c-0.4-0.36-0.87-0.7-1.41-1.03l-1.22,188.6c0,0.34-0.19,0.65-0.5,0.81c-2.68,1.37-5.49,2.47-8.35,3.28
		c-4.18,1.18-8.43,1.76-12.64,1.73c-4.18-0.03-8.4-0.66-12.54-1.87c-7.73-2.27-14.74-6.58-20.31-12.47
		c-8.7-1.61-16.78-6.1-22.8-12.65c-2.13-2.33-3.99-4.86-5.5-7.53c-1.37-2.41-2.51-4.99-3.38-7.67c-0.11-0.34-0.01-0.72,0.25-0.96
		c0.27-0.24,0.65-0.3,0.98-0.16l0.39,0.17c0.23,0.1,0.46,0.21,0.69,0.31c6.33,2.66,12.61,3.99,18.69,3.9
		c6.15-0.04,12.37-1.6,17.99-4.52c2.11-1.1,4.12-2.34,5.98-3.72c-2.04,1.05-4.19,1.94-6.42,2.67c-1.38,0.45-2.77,0.81-4.17,1.11
		c-2.41-6.43-4.19-14.7-1.2-23.46c0,0-2.38,9.32,0.22,17.61c0,0,3.26-1.7,5.02-4.41c0.72-1.1,1.18-2.37,1.08-3.76
		c-0.35-4.81-3.59-13.88-2.45-18.95c0,0-4.02,3.07-7,7.67c-3.47,5.35-5.54,12.78,1.74,19.88c0,0,0.2,0.88,0.47,2.02
		c0.28,1.16,0.62,2.59,0.9,3.62c-4.01,0.7-8.05,0.77-11.91,0.15c-5.31-0.82-10.62-2.88-15.75-6.11c-2.41-1.51-4.84-3.32-7.21-5.38
		c-0.1-0.09-0.19-0.2-0.24-0.32c-4.56-4.4-8.3-9.5-11.1-15.17c-2.64-5.34-4.38-11.05-5.16-16.98c-0.3-2.24-0.46-4.28-0.51-6.23
		c-0.01-0.36,0.19-0.69,0.51-0.84c0.32-0.15,0.7-0.11,0.98,0.12c1.99,1.64,3.95,2.94,5.99,3.98c3.45,1.78,7.43,2.77,11.21,2.79
		l0.42,0c0.44,0,1.1-0.02,1.45-0.05c0.55-0.03,1.01-0.07,1.49-0.13c0.48-0.05,1.01-0.13,1.48-0.21l1.39-0.27
		c1.85-0.41,3.69-1.01,5.43-1.79c3.06-1.36,5.98-3.3,9.19-6.12c1.18-1.03,2.33-2.11,3.43-3.15c1.49-1.4,2.89-2.73,4.39-3.95
		c1.66-1.33,3.02-2.13,4.44-2.59c0.86-0.27,1.7-0.42,2.58-0.46c0.08,0,0.15-0.01,0.23-0.01c-0.08-0.01-0.15-0.01-0.23-0.02
		c-0.91-0.09-1.8-0.06-2.67,0.09c-2,0.34-3.81,1.32-5,2.03c-1.78,1.08-3.46,2.27-5.08,3.42c-1.26,0.89-2.45,1.74-3.69,2.54
		c-3.26,2.14-6.22,3.57-9.05,4.37c-1.55,0.44-3.15,0.73-4.75,0.85l-1.22,0.06c-0.46,0.01-0.78,0.01-1.19,0
		c-0.38-0.01-0.81-0.03-1.16-0.06c-0.4-0.03-0.63-0.06-0.93-0.1l-0.23-0.03c-3.03-0.41-5.85-1.53-8.38-3.33
		c-2.26-1.59-4.39-3.76-6.51-6.62c-1.54-2.08-2.91-4.31-4.04-6.21c-2.9-5.32-4.88-10.99-5.89-16.89c-0.58-3.38-0.85-6.51-0.83-9.58
		c0-0.25,0.02-0.5,0.04-0.75c0.01-0.17,0.03-0.34,0.03-0.52c0.23-7.97,2.14-15.59,5.66-22.67c0.04-0.08,0.1-0.16,0.16-0.23
		c2.31-4.29,5.32-7.5,8.95-9.54c3.77-2.14,8.49-3.06,13.37-2.62c4.56,0.39,9.38,1.86,14.31,4.35c4.54,2.3,8.84,5.29,12.8,8.9
		c2,1.83,3.83,3.75,5.43,5.71l1.22,1.55l1.22,1.63c0.79,1.07,1.58,2.19,2.36,3.29c1.62,2.3,3.23,4.68,4.78,6.98
		c1.47,2.17,2.94,4.35,4.46,6.52c2.42,3.46,5.29,7.41,8.58,11.16c-2.91-4.04-5.36-8.23-7.42-11.88c-1.28-2.27-2.52-4.57-3.78-6.88
		c-1.33-2.45-2.71-4.99-4.11-7.47c-0.68-1.19-1.35-2.38-2.07-3.58l-2.2-3.55c-1.5-2.25-3.25-4.5-5.21-6.68
		c-3.9-4.32-8.27-8.03-12.98-11.04c-5.46-3.45-10.78-5.64-16.26-6.68c-2.02-0.39-4.08-0.6-6.14-0.61c-4.42-0.03-8.58,0.8-12.39,2.47
		c-0.44,0.19-0.87,0.41-1.3,0.63l-0.21,0.1c-0.31,0.16-0.69,0.12-0.97-0.1c-0.28-0.22-0.41-0.57-0.33-0.92
		c0.71-3.19,1.7-6.3,2.94-9.25c2.84-6.77,6.95-12.82,12.19-17.96c4.39-4.29,9.5-7.82,15.2-10.47c0.09-0.09,0.19-0.16,0.31-0.21
		c0.76-0.33,1.44-0.59,2.09-0.8c1.57-0.52,3.2-0.9,4.84-1.11c3.36-0.45,6.9-0.22,10.31,0.67c3.43,0.88,6.8,2.41,10.02,4.53
		c1.35,0.89,2.67,1.89,3.96,2.99c-0.94-1.42-1.95-2.76-3.03-4.01c-2.67-3.12-5.74-5.71-9.12-7.7c-3.6-2.13-7.7-3.59-11.84-4.23
		c-0.66-0.1-1.36-0.18-2.23-0.26c-0.31-0.03-0.58-0.21-0.72-0.48c-0.14-0.27-0.14-0.6,0.01-0.87c0.99-1.81,2.05-3.52,3.15-5.07
		c2.78-3.96,6.08-7.54,9.81-10.64c4.26-3.55,9.07-6.43,14.29-8.55c0.42-0.17,0.9-0.01,1.13,0.38c1.09,1.83,2.18,3.63,3.25,5.37
		c2.21,3.64,4.32,7.2,5.85,10.87c1.61,3.83,2.5,7.57,2.69,11.44c0.2,3.72-0.23,7.81-1.27,12.13c-0.24,0.99-0.51,2.01-0.81,3.03
		c-0.09,0.29-0.18,0.61-0.28,0.93c-0.22,0.72-0.46,1.5-0.65,2.26c-0.48,1.87-1.01,4.36-0.78,7.01c0.22,2.76,1.37,5.12,2.3,6.62
		c1.21,1.99,2.65,3.72,4.02,5.31c1.59,1.82,3.26,3.58,4.88,5.29c0.9,0.95,1.82,1.93,2.73,2.92c-0.79-1.1-1.59-2.19-2.37-3.25
		c-1.39-1.89-2.83-3.85-4.15-5.79c-2.44-3.62-4.67-7.48-4.44-11.24c0.06-1.64,0.51-3.46,1.4-5.7c0.25-0.65,0.53-1.26,0.83-1.93
		c0.14-0.31,0.28-0.63,0.43-0.98c0.45-1.05,0.88-2.1,1.26-3.11c1.76-4.68,2.76-9.06,3.07-13.37c0.35-4.52-0.17-9.37-1.5-14.04
		c-1.32-4.72-3.32-9.16-4.92-12.73c-0.94-2.08-1.86-4.11-2.73-6.12c-0.16-0.38-0.05-0.82,0.27-1.07c6.03-4.83,13.24-7.36,20.85-7.31
		c3.68,0.02,7.32,0.66,10.82,1.91c0.37,0.13,0.61,0.48,0.61,0.86l-0.36,55.44c0.18,0.32,0.37,0.63,0.54,0.97
		c2.62,5.05,3.34,10.16,3.37,10.38l0.58,4.24L298.72,375.34z M419.39,444.43c-1.08,5.89-3.13,11.53-6.09,16.78
		c-1.17,1.91-2.56,4.12-4.13,6.19c-2.15,2.83-4.31,4.97-6.59,6.54c-2.56,1.76-5.39,2.84-8.42,3.22l-0.24,0.03
		c-0.29,0.04-0.53,0.06-0.95,0.08c-0.34,0.02-0.76,0.04-1.16,0.04c-0.38,0.01-0.74,0-1.14-0.01l-1.24-0.08
		c-1.62-0.14-3.22-0.45-4.76-0.91c-2.82-0.84-5.76-2.3-8.99-4.49c-1.23-0.82-2.4-1.67-3.65-2.58c-1.61-1.17-3.28-2.39-5.05-3.49
		c-1.17-0.72-2.97-1.72-4.96-2.09c-0.87-0.16-1.79-0.2-2.65-0.13c-0.08,0.01-0.16,0.01-0.24,0.02c0.08,0,0.16,0.01,0.24,0.02
		c0.87,0.05,1.71,0.21,2.56,0.49c1.41,0.47,2.77,1.29,4.4,2.64c1.49,1.24,2.87,2.59,4.34,4.01c1.09,1.06,2.22,2.15,3.39,3.19
		c2.2,1.98,4.27,3.54,6.34,4.77l-0.68,2.2c-1.53,4.08-6.18,14.26-16.03,19.51c0,0,9.25-6.47,13.29-15.84c0,0-4.2-0.98-7.84,0.09
		c-1.48,0.43-2.87,1.21-3.84,2.52c-3.37,4.55-7.44,15.1-12.33,18.73c0,0,5.92,0.35,12.1-1.47c7.19-2.1,14.72-7.13,13.67-19.02
		c0,0,1.2-2.2,2.09-4.17l0,0l0.98-1.76c0.45,0.24,0.9,0.47,1.36,0.67c1.73,0.8,3.56,1.43,5.43,1.86l1.39,0.29
		c0.44,0.08,0.97,0.16,1.44,0.22c0.5,0.07,0.95,0.12,1.48,0.15c0.38,0.04,1.03,0.06,1.46,0.07l0.43,0.01
		c3.77,0.02,7.77-0.92,11.23-2.64c2.05-1.01,4.03-2.28,6.04-3.9c0.28-0.22,0.66-0.26,0.98-0.1c0.32,0.16,0.51,0.49,0.5,0.85
		c-0.07,1.95-0.26,3.98-0.59,6.22c-0.86,5.92-2.67,11.61-5.38,16.91c-2.87,5.63-6.67,10.68-11.3,15.02
		c-0.06,0.12-0.14,0.23-0.24,0.32c-2.4,2.02-4.85,3.8-7.28,5.29c-5.17,3.16-10.5,5.15-15.83,5.9c-1.71,0.25-3.48,0.37-5.25,0.36
		c-4.02-0.03-8.06-0.72-12.01-2.07c-2.22-0.76-4.36-1.68-6.39-2.75c1.84,1.41,3.83,2.68,5.93,3.8c5.58,3,11.78,4.64,17.93,4.76
		c0.24,0.01,0.48,0.01,0.71,0.01c5.85,0.04,11.92-1.2,18.03-3.67c0.24-0.1,0.47-0.2,0.71-0.3l0.38-0.17
		c0.33-0.14,0.71-0.07,0.98,0.17c0.26,0.24,0.36,0.62,0.24,0.96c-0.91,2.67-2.08,5.24-3.48,7.63c-1.55,2.65-3.43,5.16-5.6,7.46
		c-6.11,6.47-14.25,10.85-22.97,12.35c-5.64,5.81-12.71,10.03-20.47,12.2c-4.16,1.16-8.38,1.74-12.57,1.71
		c-4.21-0.03-8.45-0.66-12.61-1.89c-2.85-0.84-5.64-1.98-8.31-3.39c-0.3-0.16-0.49-0.47-0.49-0.81l1.65-255.71
		c0-0.39,0.25-0.73,0.62-0.86c3.52-1.2,7.17-1.79,10.84-1.77c7.61,0.05,14.79,2.67,20.76,7.58c0.32,0.26,0.42,0.7,0.25,1.08
		c-0.9,2-1.84,4.01-2.81,6.08c-1.65,3.54-3.7,7.96-5.08,12.66c-1.39,4.65-1.97,9.5-1.69,14.02c0.25,4.32,1.2,8.71,2.9,13.41
		c0.37,1.02,0.78,2.07,1.22,3.13c0.14,0.34,0.28,0.67,0.42,0.98c0.29,0.68,0.56,1.29,0.8,1.95c0.86,2.25,1.28,4.08,1.32,5.74
		c0.19,3.74-2.09,7.58-4.58,11.16c-1.35,1.93-2.81,3.87-4.23,5.74c-0.8,1.05-1.61,2.13-2.42,3.22c0.92-0.97,1.86-1.94,2.77-2.88
		c1.64-1.69,3.33-3.43,4.95-5.23c1.39-1.56,2.85-3.28,4.08-5.25c0.95-1.49,2.13-3.84,2.38-6.59c0.27-2.65-0.23-5.15-0.69-7.02
		c-0.19-0.77-0.42-1.56-0.63-2.27c-0.09-0.33-0.19-0.64-0.27-0.93c-0.29-1.03-0.55-2.06-0.77-3.05c-0.99-4.34-1.36-8.42-1.12-12.15
		c0.25-3.87,1.17-7.6,2.84-11.4c1.58-3.64,3.74-7.18,5.99-10.79c1.09-1.73,2.21-3.51,3.31-5.33c0.24-0.39,0.72-0.54,1.13-0.37
		c5.19,2.19,9.97,5.13,14.18,8.73c3.68,3.15,6.94,6.77,9.67,10.76c1.08,1.57,2.11,3.29,3.08,5.11c0.14,0.27,0.14,0.6-0.01,0.87
		c-0.15,0.27-0.42,0.45-0.73,0.47c-0.87,0.07-1.57,0.14-2.23,0.23c-4.15,0.58-8.26,1.99-11.89,4.07c-3.4,1.95-6.51,4.5-9.22,7.58
		c-1.09,1.24-2.12,2.57-3.08,3.97c1.3-1.08,2.63-2.06,3.99-2.94c3.24-2.09,6.63-3.57,10.07-4.4c3.42-0.84,6.96-1.02,10.32-0.53
		c1.63,0.24,3.26,0.63,4.83,1.18c0.64,0.22,1.32,0.49,2.08,0.83c0.12,0.05,0.22,0.13,0.3,0.22c5.66,2.73,10.73,6.32,15.06,10.67
		c5.18,5.21,9.2,11.3,11.96,18.11c1.2,2.96,2.14,6.08,2.82,9.28c0.07,0.34-0.06,0.7-0.34,0.91c-0.28,0.21-0.66,0.24-0.97,0.08
		l-0.21-0.11c-0.42-0.22-0.85-0.44-1.28-0.64c-5.49-2.5-12.18-3.24-18.5-2.1c-5.5,0.97-10.84,3.09-16.35,6.47
		c-4.76,2.94-9.17,6.6-13.13,10.87c-1.98,2.15-3.76,4.37-5.3,6.62l-1.16,1.77l-1.08,1.75c-0.73,1.19-1.42,2.36-2.12,3.55
		c-1.44,2.47-2.85,4.98-4.21,7.42c-1.28,2.29-2.56,4.57-3.86,6.83c-2.11,3.63-4.62,7.79-7.58,11.79c3.34-3.7,6.26-7.62,8.73-11.04
		c1.54-2.14,3.04-4.31,4.54-6.46c1.59-2.28,3.23-4.64,4.87-6.92c0.79-1.1,1.6-2.2,2.4-3.26l2.47-3.15c1.63-1.94,3.48-3.84,5.51-5.65
		c4.01-3.56,8.35-6.5,12.92-8.73c4.96-2.43,9.8-3.83,14.37-4.17c0.35-0.03,0.69-0.03,1.03-0.04l0.42,2.36l0,0
		c0.4,3.23,1.17,14.23-5.15,23c0,0,4.94-8.95,4.47-18.19c0,0-3.81,0.88-6.34,3.2c-1.03,0.94-1.85,2.13-2.11,3.59
		c-0.92,5.04-0.01,15.24-2.54,20.15c0,0,4.95-2.08,9.25-6.02c5-4.58,9.11-11.68,3.52-20.92c0,0,0.12-2.79,0.01-4.84h0l-0.11-2.34
		c3.99,0.06,7.78,1.03,10.9,2.85c3.6,2.09,6.57,5.34,8.83,9.67c0.06,0.06,0.11,0.13,0.15,0.21c3.43,7.12,5.24,14.77,5.37,22.74
		c0,0.17,0.01,0.35,0.03,0.52c0.02,0.25,0.03,0.5,0.03,0.75C420.32,437.93,420.01,441.06,419.39,444.43z"/>
	<path class="st1" d="M393.82,299.59c0,0-10.52,4.11-16.65,12.27c0,0,3.85,1.94,7.64,1.76c1.54-0.07,3.07-0.5,4.33-1.55
		c4.34-3.63,10.78-12.92,16.4-15.3c0,0-5.67-1.73-12.1-1.43c-7.48,0.35-15.98,3.46-17.77,15.26c0,0-2.55,2.8-3.85,4.68
		c0.57,0.33,1.08,0.62,1.13,0.54C374.5,313.36,381.74,302.7,393.82,299.59z"/>
	<path class="st1" d="M328.66,412.95c-4.9,2.45-8.4,6.09-8.4,6.09c5.16-0.57,13.82,3.66,18.55,4.55c1.37,0.26,2.69-0.06,3.86-0.65
		c2.89-1.44,4.95-4.49,4.95-4.49c-7.95-3.51-17.48-2.19-17.48-2.19c9.39-2.49,18.4,1.4,21.54,3.01c0.17-0.29,0.35-0.58,0.52-0.87
		c-1.74-0.75-3.98-1.5-3.98-1.5C341.98,408.87,334.36,410.09,328.66,412.95z"/>
	<path class="st1" d="M349.15,369.8c0,0-3.11-0.14-5.39-0.01c0,0.4-0.01,0.81-0.04,1.22c3.43-0.43,15.73-1.37,25.51,5.68
		c0,0-9.89-5.45-20.08-4.94c0,0,0.97,4.2,3.54,7c1.04,1.14,2.35,2.04,3.96,2.33c5.57,1.01,16.83,0.01,22.25,2.81
		c0,0-2.3-5.47-6.65-10.21C367.19,368.16,359.36,363.62,349.15,369.8z"/>
	<path class="st1" d="M320.28,515.06c-0.2,0.6-0.38,1.24-0.55,1.89l-0.26,1.15c-0.05,0.23-0.09,0.47-0.13,0.75
		c-0.21,1.42-0.3,2.71-0.28,3.96c0.06,2.66,0.57,5.23,1.51,7.62c1.13,2.9,2.85,5.59,5.02,7.89c-1.6-2.94-2.7-5.73-3.34-8.43
		c-0.56-2.36-0.79-4.73-0.69-7.06c0.06-1.23,0.2-2.43,0.41-3.48c0.04-0.23,0.11-0.56,0.18-0.88l0.2-0.84
		c0.14-0.54,0.31-1.1,0.51-1.7c1.43-4.25,3.99-8.28,7.61-11.95c1.97-2.02,4.25-3.91,6.99-5.8c-2.9,1.06-5.65,2.57-8.14,4.49
		C325.07,505.94,321.86,510.34,320.28,515.06z"/>
	<path class="st1" d="M401.42,450.39c-2.61,3.46-6.33,5.78-10.75,6.71c-2.43,0.53-5.13,0.69-8.36,0.5c2.38,0.82,4.8,1.26,7.18,1.27
		c0,0,0,0,0,0c0.47,0,0.94-0.01,1.41-0.04c2.47-0.16,4.91-0.85,7.03-1.98c2.15-1.13,4.1-2.79,5.65-4.81
		c3.52-4.6,4.34-9.96,4.41-13.66c0.05-2.88-0.3-5.79-1.03-8.61c-0.06,2.81-0.25,5.66-0.73,8.46
		C405.42,443.19,403.8,447.27,401.42,450.39z"/>
	<path class="st1" d="M233.96,366.87c0,0-8.86,7-12.34,16.6c0,0,4.25,0.73,7.82-0.55c1.45-0.52,2.79-1.37,3.69-2.75
		c3.09-4.74,6.53-15.51,11.21-19.42c0,0-5.93,0-11.99,2.17c-7.05,2.52-14.27,7.98-12.53,19.79c0,0-1.57,3.32-2.28,5.49
		c0.4,0.1,0.8,0.21,1.2,0.32C219.48,385.76,223.28,373.39,233.96,366.87z"/>
	<path class="st1" d="M226.47,431.46c1.6,5.24,4.62,9.3,4.62,9.3c0.29-5.19,5.9-13.02,7.56-17.54c0.48-1.31,0.38-2.66,0-3.92
		c-0.95-3.09-3.61-5.62-3.61-5.62c-4.78,7.26-5.05,16.88-5.05,16.88c-0.93-10.07,4.86-18.56,6.76-21.05
		c-0.27-0.22-0.53-0.43-0.8-0.65c-1.08,1.62-2.33,3.97-2.33,3.97C224.66,417.64,224.6,425.36,226.47,431.46z"/>
	<path class="st1" d="M278.41,356.01c0,0-2.13-0.67-3.95-1.09l-0.27,0.96c3.46,0.54,13.06,2.68,19.22,10.24
		c0,0-6.93-6.67-15.43-8.51c0,0-0.13,3.67,1.36,6.54c0.61,1.17,1.48,2.2,2.74,2.8c4.36,2.07,13.84,3.73,17.68,7.23
		c0,0-0.68-5.01-3.21-9.87C293.61,358.66,288.17,353.19,278.41,356.01z"/>
	<path class="st1" d="M284.03,517.87l-0.24-1.15c-0.15-0.66-0.33-1.3-0.52-1.9c-1.52-4.74-4.68-9.18-8.88-12.51
		c-2.47-1.95-5.2-3.5-8.09-4.59c2.71,1.92,4.97,3.85,6.91,5.89c3.57,3.72,6.08,7.78,7.45,12.05c0.2,0.6,0.36,1.16,0.49,1.7
		l0.19,0.84c0.07,0.32,0.13,0.65,0.17,0.88c0.2,1.06,0.32,2.26,0.37,3.49c0.07,2.33-0.19,4.71-0.78,7.05
		c-0.67,2.69-1.81,5.47-3.44,8.39c2.2-2.28,3.96-4.95,5.12-7.83c0.97-2.38,1.51-4.94,1.61-7.6c0.04-1.25-0.03-2.54-0.23-3.96
		C284.12,518.34,284.08,518.1,284.03,517.87z"/>
	<path class="st2" d="M466.28,402.44c-0.15-0.21-3.67-5.15-9.13-8.98c-8.98-6.31-17.72-5.97-25.29,0.96
		c-1.01,0.19-3.12,0.6-4.85,1.08c-2.49-20.66-14.51-39.43-32.67-50.35c-4.1-11.22-10.95-20.95-19.76-28.47
		c0.4-0.62,1.11-1.69,2.15-3.01c1.14,0.52,4.63,1.94,8.17,1.78c2.15-0.1,3.97-0.76,5.41-1.97c1.65-1.38,3.53-3.46,5.51-5.67
		c3.37-3.74,7.19-7.98,10.43-9.35l4.63-1.96l-4.8-1.47c-0.24-0.07-6.05-1.82-12.72-1.5c-10.97,0.52-17.66,6.14-19.39,16.26
		c-0.69,0.77-2.12,2.41-3.19,3.86c-5.39-3.97-11.38-7.18-17.88-9.46c-5.92-5.65-13.06-9.58-20.78-11.55c0.1-0.53,0.25-1.2,0.45-1.97
		c0.96,0.02,3.86-0.05,6.3-1.25c1.48-0.73,2.56-1.76,3.21-3.05c0.74-1.48,1.42-3.52,2.15-5.69c1.23-3.67,2.62-7.83,4.48-9.79
		l2.66-2.8l-3.84,0.44c-0.19,0.02-4.82,0.57-9.43,2.84c-7.57,3.73-10.57,9.75-8.68,17.41c-0.21,0.64-0.61,1.9-0.92,3.09
		c-2.49-0.43-5.02-0.67-7.59-0.68c-5.9-0.04-11.71,1.05-17.28,3.23c-5.53-2.25-11.33-3.42-17.23-3.45
		c-5.97-0.04-11.8,1.06-17.25,3.19c-0.54-1.33-1.2-2.73-1.55-3.44c0.95-8.98-3.37-15.34-12.53-18.4c-5.57-1.86-10.9-1.77-11.12-1.77
		l-4.42,0.09l3.45,2.76c2.41,1.93,4.63,6.44,6.59,10.41c1.15,2.34,2.24,4.55,3.31,6.11c0.93,1.36,2.32,2.36,4.11,2.96
		c2.96,0.99,6.25,0.61,7.34,0.45c0.43,1.05,0.74,1.92,0.94,2.56c-3.97,1.99-7.68,4.55-11.02,7.66
		c-17.45,5.87-31.54,18.37-39.51,34.76c-0.48-0.16-1.09-0.37-1.81-0.67c0.13-0.86,0.41-3.47-0.38-5.8
		c-0.48-1.42-1.27-2.51-2.36-3.24c-1.24-0.84-2.99-1.69-4.85-2.6c-3.15-1.53-6.72-3.27-8.26-5.17l-2.2-2.72l-0.06,3.49
		c0,0.18-0.05,4.4,1.44,8.8c2.46,7.23,7.5,10.63,14.61,9.84c0.52,0.25,1.5,0.71,2.48,1.11c-0.37,0.86-0.74,1.73-1.08,2.61
		c-20.77,12.13-33.76,34.46-33.92,58.37c0,0.44,0.02,0.87,0.05,1.3c0.01,0.22,0.03,0.43,0.04,0.65c-1.25,2.6-2.33,5.24-3.23,7.92
		c-0.73-0.22-1.82-0.59-3.16-1.13c0.18-1.24,0.59-4.99-0.55-8.34c-0.69-2.04-1.83-3.6-3.39-4.66c-1.78-1.2-4.3-2.43-6.97-3.73
		c-4.53-2.2-9.66-4.7-11.87-7.43l-3.16-3.9l-0.08,5.02c0,0.26-0.07,6.32,2.07,12.64c3.53,10.4,10.78,15.28,20.99,14.14
		c0.96,0.46,3.01,1.42,4.72,2.05c-1.39,5.35-2.11,10.83-2.15,16.4c-0.07,10.68,2.33,20.98,7.14,30.64c-0.61,3.8-0.9,7.05-0.92,10.22
		c-0.02,3.1,0.17,6.18,0.57,9.22c-0.58,0.24-1.93,0.77-3.82,1.32c-0.62-1.08-2.63-4.28-5.6-6.21c-1.81-1.17-3.67-1.69-5.54-1.56
		c-2.15,0.16-4.88,0.76-7.78,1.39c-4.92,1.07-10.5,2.29-13.92,1.52l-4.9-1.11l3.05,3.99c0.16,0.2,3.86,5.01,9.46,8.64
		c9.21,5.97,17.93,5.31,25.24-1.91c0.97-0.22,2.98-0.69,4.66-1.22c2.37,11.45,7.68,22.21,15.57,31.19
		c2.26,22.41,18.37,41.33,40.21,47.2c3.22,2.95,6.72,5.5,10.43,7.64c-0.24,0.43-0.71,1.21-1.4,2.18c-0.8-0.32-3.24-1.18-5.67-0.95
		c-1.47,0.14-2.7,0.66-3.65,1.53c-1.09,1-2.3,2.49-3.59,4.07c-2.19,2.68-4.67,5.72-6.84,6.77l-3.11,1.5l3.35,0.85
		c0.17,0.04,4.21,1.05,8.78,0.6c7.51-0.72,11.92-4.8,12.77-11.81c0.5-0.62,1.61-2.03,2.31-3.14c8.04,4.06,16.93,6.24,26.05,6.3
		c9.08,0.06,17.89-1.96,26.18-6c0.32-0.16,0.62-0.34,0.92-0.53c0.06-0.04,0.13-0.08,0.19-0.12c0.06,0.04,0.13,0.08,0.19,0.12
		c0.3,0.19,0.6,0.38,0.92,0.54c8.23,4.15,17.02,6.28,26.1,6.34c14.58,0.09,28.64-5.24,39.63-15.04
		c19.74-5.04,34.97-20.74,39.66-40.16c0.76,0.06,1.97,0.17,3.5,0.43c0.09,1.25,0.51,5,2.36,8.02c1.12,1.84,2.57,3.12,4.32,3.81
		c2,0.79,4.73,1.44,7.61,2.12c4.9,1.17,10.45,2.49,13.2,4.67l3.93,3.12l-1.02-4.92c-0.05-0.25-1.3-6.18-4.78-11.88
		c-5.71-9.38-13.85-12.56-23.57-9.23c-0.96-0.22-2.92-0.66-4.64-0.91c0.09-0.58,0.17-1.16,0.23-1.75
		c11.22-12.46,17.46-28.45,17.57-45.06c0-0.66-0.01-1.33-0.03-2l0.16-0.08c0.03-0.02,1.2-0.62,3.12-1.28
		c0.52,0.81,2.18,3.18,4.54,4.55c1.43,0.83,2.88,1.16,4.32,0.98c1.64-0.2,3.72-0.77,5.92-1.37c3.74-1.02,7.97-2.17,10.63-1.7
		l3.8,0.66l-2.49-2.95c-0.13-0.15-3.15-3.7-7.6-6.27c-7.3-4.23-13.97-3.39-19.3,2.43c-0.7,0.19-2.11,0.6-3.34,1.05
		c-0.13-1.35-0.3-2.76-0.51-4.25c4.93-9.6,7.46-19.87,7.53-30.55c0.06-10.04-2.09-19.81-6.4-29.06c0.01-0.22,0.03-0.43,0.05-0.65
		c0.03-0.43,0.06-0.85,0.07-1.29c0.01-1.15-0.02-2.3-0.08-3.44l0.07-0.03c0.04-0.02,1.63-0.66,4.18-1.3
		c0.58,1.11,2.47,4.37,5.37,6.41c1.76,1.24,3.6,1.83,5.48,1.76c2.15-0.08,4.91-0.57,7.83-1.1c4.96-0.89,10.58-1.9,13.97-1l4.85,1.29
		L466.28,402.44z M430.87,469.95c6.06-6.88,12.85-5.35,17.84-2.47c4.28,2.48,7.23,5.96,7.23,5.96c-4.62-0.8-12.65,2.52-16.97,3.06
		c-1.25,0.16-2.42-0.21-3.44-0.8c-2.52-1.46-4.2-4.32-4.2-4.32c7.36-2.72,15.87-1,15.87-1c-9.1-3.02-18.21,0.85-20.24,1.81
		c-0.02-0.33-0.04-0.66-0.06-1C428.52,470.58,430.87,469.95,430.87,469.95z M375.67,310.62c1.78-11.8,10.29-14.91,17.77-15.26
		c6.43-0.31,12.1,1.43,12.1,1.43c-5.61,2.37-12.05,11.67-16.4,15.3c-1.26,1.05-2.79,1.47-4.33,1.55c-3.79,0.18-7.64-1.76-7.64-1.76
		c6.13-8.16,16.65-12.27,16.65-12.27c-12.08,3.11-19.32,13.76-20.87,16.24c-0.05,0.08-0.56-0.21-1.13-0.54
		C373.12,313.42,375.67,310.62,375.67,310.62z M338.72,272.63c4.44-2.19,8.97-2.71,8.97-2.71c-3.23,3.4-4.92,11.92-6.87,15.81
		c-0.56,1.13-1.51,1.89-2.58,2.42c-2.61,1.29-5.93,1.1-5.93,1.1c1.82-7.63,7.97-13.75,7.97-13.75c-6.71,5.23-8.91,13.47-9.55,16.82
		c-0.29-0.06-0.57-0.13-0.86-0.19c0.41-1.57,1-3.29,1-3.29C328.51,279.98,333.55,275.18,338.72,272.63z M264.39,291.7
		c0,0-3.73,0.72-6.89-0.33c-1.29-0.43-2.48-1.15-3.29-2.34c-2.81-4.11-6.04-13.51-10.22-16.86c0,0,5.21-0.11,10.58,1.68
		c6.25,2.09,12.7,6.75,11.39,17.16c0,0,1,2.01,1.72,3.78c-0.32,0.14-0.63,0.27-0.94,0.42c-1.15-3.51-4.89-12.84-13.51-17.86
		C253.23,277.35,261.15,283.33,264.39,291.7z M211.1,338.95c-8.23,1.08-11.95-4.01-13.63-8.95c-1.44-4.24-1.38-8.37-1.38-8.37
		c2.67,3.3,10.12,5.81,13.39,8.02c0.94,0.64,1.52,1.58,1.87,2.6c0.85,2.5,0.29,5.45,0.29,5.45c-6.64-2.53-11.41-8.77-11.41-8.77
		c3.9,6.64,11.03,9.57,13.96,10.54c-0.11,0.24-0.24,0.48-0.35,0.72C212.52,339.65,211.1,338.95,211.1,338.95z M169.42,412.94
		c-11.83,1.55-17.17-5.76-19.58-12.86c-2.07-6.09-1.98-12.02-1.98-12.02c3.84,4.74,14.55,8.36,19.24,11.53
		c1.36,0.91,2.19,2.27,2.68,3.73c1.22,3.59,0.42,7.83,0.42,7.83c-9.54-3.64-16.39-12.61-16.39-12.61
		c5.99,10.19,17.28,14.32,20.85,15.41c-0.12,0.38-0.24,0.77-0.35,1.15C172.18,414.3,169.42,412.94,169.42,412.94z M173.74,487.77
		c-8.33,8.55-17.05,6.12-23.33,2.04c-5.4-3.5-9-8.21-9-8.21c5.95,1.34,16.6-2.45,22.24-2.87c1.63-0.12,3.12,0.43,4.42,1.27
		c3.18,2.06,5.18,5.89,5.18,5.89c-9.74,3.05-20.68,0.26-20.68,0.26c11.33,4.4,23.1,0.31,26.19-0.94c0.06,0.41,0.12,0.82,0.19,1.22
		C176.78,487.12,173.74,487.77,173.74,487.77z M244.96,578.49c-0.83,8.16-6.56,10.58-11.68,11.07c-4.4,0.42-8.35-0.57-8.35-0.57
		c3.77-1.82,7.88-8.41,10.74-11.05c0.83-0.76,1.86-1.11,2.92-1.21c2.59-0.25,5.3,0.95,5.3,0.95c-3.94,5.8-11.02,8.97-11.02,8.97
		c8.12-2.52,12.72-9.95,13.75-11.79c0.25,0.14,0.5,0.27,0.75,0.4C246.51,576.6,244.96,578.49,244.96,578.49z M413.98,525.35
		c11.21-4.09,18.01,1.89,21.91,8.28c3.35,5.5,4.55,11.31,4.55,11.31c-4.78-3.79-16.02-4.99-21.28-7.06
		c-1.52-0.6-2.63-1.74-3.43-3.06c-1.97-3.24-2.11-7.55-2.11-7.55c10.1,1.47,18.74,8.74,18.74,8.74
		c-8.02-8.58-19.85-10.19-23.64-10.49c0.08-0.39,0.16-0.78,0.23-1.18C411.16,524.67,413.98,525.35,413.98,525.35z M442.46,405.53
		c-1.64,0.06-3.11-0.54-4.37-1.43c-3.1-2.18-4.96-6.08-4.96-6.08c9.85-2.69,20.67,0.51,20.67,0.51c-11.53-4.99-23.87-0.91-26.5,0.07
		c0,0-0.96,0.32-1.78,0.57c0.11,1.58,0.16,3.17,0.15,4.77c0,0.39-0.03,0.78-0.06,1.17c-0.02,0.31-0.05,0.62-0.06,0.94
		c-0.01,0.15,0.02,0.29,0.09,0.42c4.26,9.06,6.38,18.64,6.32,28.48c-0.07,10.48-2.58,20.57-7.46,29.98
		c-0.09,0.17-0.12,0.36-0.09,0.55c0.57,3.85,0.83,7.1,0.81,10.24c-0.11,16.26-6.25,31.91-17.29,44.07
		c-0.13,0.14-0.21,0.32-0.23,0.51c-2.37,21.82-18.32,40.09-39.7,45.46c-0.14,0.04-0.28,0.11-0.39,0.21
		c-10.67,9.58-24.37,14.81-38.57,14.72c-8.8-0.06-17.31-2.12-25.29-6.14c-0.27-0.14-0.52-0.3-0.77-0.45
		c-0.24-0.15-0.47-0.3-0.72-0.44c-0.13-0.07-0.28-0.11-0.43-0.11c-0.15,0-0.3,0.03-0.43,0.11c-0.25,0.13-0.49,0.28-0.73,0.43
		c-0.25,0.15-0.5,0.31-0.77,0.44c-8.03,3.92-16.57,5.87-25.37,5.82c-14.2-0.09-27.83-5.5-38.37-15.22c-0.11-0.1-0.24-0.17-0.38-0.21
		c-21.31-5.64-37.02-24.12-39.11-45.97c-0.02-0.19-0.1-0.37-0.22-0.52c-10.89-12.3-16.82-28.03-16.72-44.29
		c0.02-3.15,0.32-6.4,0.94-10.23c0.03-0.19,0-0.38-0.09-0.56c-4.76-9.48-7.14-19.6-7.08-30.08c0.06-9.84,2.31-19.39,6.69-28.4
		c0.06-0.13,0.1-0.28,0.09-0.42c-0.01-0.31-0.03-0.62-0.05-0.93c-0.02-0.39-0.05-0.78-0.05-1.17c0.15-23.37,12.91-45.2,33.29-56.96
		c0.18-0.11,0.32-0.27,0.4-0.47c7.07-18.87,22.07-33.34,41.15-39.7c0.12-0.04,0.24-0.11,0.34-0.2c8.48-7.95,19.5-12.29,31.03-12.22
		c5.79,0.04,11.47,1.2,16.89,3.45c0.22,0.09,0.47,0.09,0.69,0c5.45-2.18,11.14-3.27,16.93-3.24c11.53,0.07,22.5,4.56,30.87,12.62
		c0.09,0.09,0.21,0.16,0.33,0.2c19,6.61,33.81,21.27,40.63,40.23c0.07,0.2,0.21,0.37,0.39,0.48c18.42,10.95,30.4,30.16,32.29,51.15
		l2.79-0.63c0.79-0.2,1.63-0.38,2.37-0.54l0.01,0v0c1.2-0.25,2.13-0.41,2.13-0.41c8.64-8.23,17.27-5.48,23.39-1.17
		c5.27,3.7,8.69,8.54,8.69,8.54C458.9,401.93,448.12,405.32,442.46,405.53z"/>
	<path class="st2" d="M420.29,433.6c-0.13-7.97-1.94-15.62-5.37-22.74c-0.04-0.08-0.09-0.15-0.15-0.21
		c-2.26-4.33-5.23-7.58-8.83-9.67c-3.12-1.82-6.91-2.79-10.9-2.85l0.11,2.34h0c0.11,2.06-0.01,4.84-0.01,4.84
		c5.6,9.24,1.48,16.34-3.52,20.92c-4.3,3.94-9.25,6.02-9.25,6.02c2.53-4.91,1.62-15.11,2.54-20.15c0.26-1.46,1.08-2.64,2.11-3.59
		c2.53-2.32,6.34-3.2,6.34-3.2c0.46,9.23-4.47,18.19-4.47,18.19c6.32-8.77,5.55-19.77,5.15-23l0,0l-0.42-2.36
		c-0.34,0.01-0.69,0.02-1.03,0.04c-4.57,0.33-9.4,1.74-14.37,4.17c-4.57,2.24-8.91,5.18-12.92,8.73c-2.02,1.81-3.87,3.7-5.51,5.65
		l-2.47,3.15c-0.8,1.06-1.61,2.16-2.4,3.26c-1.64,2.28-3.29,4.64-4.87,6.92c-1.5,2.15-3,4.31-4.54,6.46
		c-2.46,3.43-5.38,7.34-8.73,11.04c2.96-4,5.47-8.16,7.58-11.79c1.31-2.26,2.58-4.54,3.86-6.83c1.36-2.44,2.77-4.95,4.21-7.42
		c0.69-1.19,1.38-2.36,2.12-3.55l1.08-1.75l1.16-1.77c1.54-2.24,3.32-4.47,5.3-6.62c3.95-4.27,8.37-7.93,13.13-10.87
		c5.51-3.39,10.86-5.5,16.35-6.47c6.32-1.14,13.01-0.39,18.5,2.1c0.43,0.19,0.86,0.42,1.28,0.64l0.21,0.11
		c0.31,0.16,0.69,0.13,0.97-0.08c0.28-0.21,0.41-0.57,0.34-0.91c-0.67-3.2-1.62-6.32-2.82-9.28c-2.76-6.81-6.78-12.9-11.96-18.11
		c-4.33-4.35-9.39-7.94-15.06-10.67c-0.08-0.09-0.19-0.17-0.3-0.22c-0.76-0.34-1.43-0.61-2.08-0.83c-1.57-0.55-3.19-0.94-4.83-1.18
		c-3.36-0.49-6.9-0.31-10.32,0.53c-3.44,0.84-6.83,2.32-10.07,4.4c-1.36,0.87-2.7,1.85-3.99,2.94c0.96-1.41,1.99-2.74,3.08-3.97
		c2.71-3.09,5.81-5.64,9.22-7.58c3.63-2.08,7.74-3.49,11.89-4.07c0.66-0.09,1.36-0.17,2.23-0.23c0.31-0.02,0.58-0.2,0.73-0.47
		c0.15-0.27,0.15-0.6,0.01-0.87c-0.97-1.82-2-3.54-3.08-5.11c-2.73-3.99-5.98-7.61-9.67-10.76c-4.22-3.6-8.99-6.54-14.18-8.73
		c-0.41-0.17-0.9-0.02-1.13,0.37c-1.11,1.82-2.23,3.6-3.31,5.33c-2.26,3.61-4.41,7.15-5.99,10.79c-1.67,3.81-2.59,7.54-2.84,11.4
		c-0.25,3.72,0.13,7.81,1.12,12.15c0.22,0.99,0.48,2.01,0.77,3.05c0.08,0.29,0.17,0.61,0.27,0.93c0.21,0.72,0.44,1.5,0.63,2.27
		c0.46,1.87,0.95,4.37,0.69,7.02c-0.26,2.75-1.44,5.1-2.38,6.59c-1.24,1.97-2.69,3.68-4.08,5.25c-1.62,1.8-3.31,3.54-4.95,5.23
		c-0.91,0.94-1.85,1.91-2.77,2.88c0.8-1.09,1.62-2.17,2.42-3.22c1.41-1.87,2.88-3.81,4.23-5.74c2.49-3.59,4.77-7.42,4.58-11.16
		c-0.04-1.66-0.46-3.49-1.32-5.74c-0.25-0.65-0.51-1.27-0.8-1.95c-0.13-0.31-0.27-0.64-0.42-0.98c-0.44-1.06-0.85-2.11-1.22-3.13
		c-1.7-4.7-2.65-9.09-2.9-13.41c-0.29-4.52,0.3-9.37,1.69-14.02c1.38-4.7,3.44-9.11,5.08-12.66c0.97-2.07,1.91-4.08,2.81-6.08
		c0.17-0.38,0.06-0.82-0.25-1.08c-5.97-4.91-13.15-7.53-20.76-7.58c-3.68-0.02-7.33,0.57-10.84,1.77c-0.37,0.12-0.62,0.47-0.62,0.86
		l-1.65,255.71c0,0.34,0.19,0.65,0.49,0.81c2.67,1.41,5.46,2.55,8.31,3.39c4.16,1.23,8.41,1.87,12.61,1.89
		c4.18,0.03,8.41-0.55,12.57-1.71c7.76-2.17,14.83-6.39,20.47-12.2c8.72-1.5,16.86-5.88,22.97-12.35c2.17-2.3,4.05-4.81,5.6-7.46
		c1.4-2.39,2.57-4.96,3.48-7.63c0.12-0.34,0.02-0.72-0.24-0.96c-0.26-0.24-0.65-0.31-0.98-0.17l-0.38,0.17
		c-0.24,0.1-0.47,0.2-0.71,0.3c-6.11,2.47-12.18,3.71-18.03,3.67c-0.23,0-0.47,0-0.71-0.01c-6.15-0.12-12.35-1.76-17.93-4.76
		c-2.1-1.12-4.08-2.4-5.93-3.8c2.03,1.07,4.17,2,6.39,2.75c3.95,1.34,7.99,2.04,12.01,2.07c1.77,0.01,3.54-0.11,5.25-0.36
		c5.33-0.76,10.66-2.74,15.83-5.9c2.43-1.48,4.88-3.26,7.28-5.29c0.1-0.09,0.18-0.2,0.24-0.32c4.62-4.34,8.42-9.4,11.3-15.02
		c2.71-5.3,4.52-10.99,5.38-16.91c0.33-2.24,0.52-4.28,0.59-6.22c0.01-0.36-0.18-0.69-0.5-0.85c-0.32-0.16-0.7-0.12-0.98,0.1
		c-2.01,1.62-3.99,2.89-6.04,3.9c-3.47,1.73-7.46,2.67-11.23,2.64l-0.43-0.01c-0.43-0.01-1.09-0.03-1.46-0.07
		c-0.52-0.04-0.98-0.09-1.48-0.15c-0.47-0.06-1-0.14-1.44-0.22L388.6,482c-1.87-0.43-3.69-1.06-5.43-1.86
		c-0.46-0.21-0.91-0.44-1.36-0.67l-0.98,1.76l0,0c-0.89,1.97-2.09,4.17-2.09,4.17c1.05,11.89-6.49,16.91-13.67,19.02
		c-6.18,1.81-12.1,1.47-12.1,1.47c4.9-3.63,8.97-14.18,12.33-18.73c0.97-1.32,2.36-2.09,3.84-2.52c3.64-1.07,7.84-0.09,7.84-0.09
		c-4.04,9.37-13.29,15.84-13.29,15.84c9.85-5.25,14.5-15.43,16.03-19.51l0.68-2.2c-2.07-1.24-4.14-2.79-6.34-4.77
		c-1.17-1.04-2.3-2.14-3.39-3.19c-1.47-1.42-2.86-2.77-4.34-4.01c-1.64-1.35-2.99-2.17-4.4-2.64c-0.85-0.28-1.69-0.44-2.56-0.49
		c-0.08-0.01-0.16-0.01-0.24-0.02c0.08-0.01,0.16-0.01,0.24-0.02c0.86-0.08,1.78-0.03,2.65,0.13c1.99,0.37,3.79,1.37,4.96,2.09
		c1.77,1.11,3.43,2.32,5.05,3.49c1.25,0.91,2.43,1.77,3.65,2.58c3.24,2.18,6.18,3.65,8.99,4.49c1.55,0.46,3.14,0.77,4.76,0.91
		l1.24,0.08c0.4,0.01,0.76,0.02,1.14,0.01c0.4,0,0.82-0.02,1.16-0.04c0.42-0.02,0.65-0.05,0.95-0.08l0.24-0.03
		c3.03-0.37,5.86-1.46,8.42-3.22c2.29-1.57,4.44-3.7,6.59-6.54c1.57-2.07,2.96-4.27,4.13-6.19c2.96-5.25,5.01-10.9,6.09-16.78
		c0.62-3.37,0.94-6.5,0.96-9.56c0-0.25-0.01-0.5-0.03-0.75C420.3,433.95,420.29,433.77,420.29,433.6z M351.68,419.26
		c-3.14-1.6-12.15-5.49-21.54-3.01c0,0,9.53-1.32,17.48,2.19c0,0-2.06,3.05-4.95,4.49c-1.18,0.59-2.49,0.91-3.86,0.65
		c-4.74-0.89-13.39-5.12-18.55-4.55c0,0,3.5-3.65,8.4-6.09c5.71-2.85,13.33-4.08,19.56,3.95c0,0,2.24,0.75,3.98,1.5
		C352.02,418.69,351.85,418.98,351.68,419.26z M373.09,467.77c-1.64-1.19-3.33-2.42-5.16-3.57c-0.48-0.29-1.06-0.63-1.7-0.96
		c-1.11-0.57-2.44-1.11-3.89-1.37c-1.03-0.19-2.15-0.24-3.12-0.15c-1.04,0.07-2.01,0.22-2.9,0.44c-1.97,0.48-3.79,1.4-5.28,2.64
		c-1.36,1.13-2.54,2.55-3.59,4.36c-0.24,0.41-0.12,0.94,0.27,1.21c0.02,0.01,0.03,0.01,0.05,0.02c0.39,0.23,0.89,0.15,1.18-0.21
		c1.13-1.43,2.34-2.54,3.59-3.31c1.29-0.8,2.79-1.31,4.35-1.47c0.75-0.08,1.51-0.08,2.37-0.02c0.72,0.04,1.4,0.17,2.1,0.4
		c0.31,0.1,0.62,0.23,0.94,0.38c0.89,0.42,1.81,1.04,2.88,1.93c1.43,1.2,2.8,2.52,4.24,3.92c1.1,1.07,2.24,2.17,3.44,3.24
		c1.88,1.69,3.66,3.08,5.44,4.24c-0.25,0.72-0.67,1.82-1.29,3.18c-1.23-0.23-4.96-0.8-8.36,0.2c-2.06,0.61-3.68,1.68-4.8,3.19
		c-1.28,1.73-2.61,4.2-4.02,6.81c-2.4,4.43-5.11,9.45-7.93,11.54l-4.03,2.99l0.09,0.01l4.92,0.29c0.26,0.01,6.31,0.34,12.72-1.54
		c10.54-3.09,15.72-10.13,15.02-20.37c0.43-0.81,1.27-2.42,1.95-3.94c1.8,0.82,3.7,1.47,5.66,1.93l1.44,0.3
		c0.5,0.09,1.07,0.18,1.55,0.24c0.52,0.07,1.02,0.12,1.56,0.16c0.43,0.04,1.12,0.07,1.58,0.08l0.45,0.01
		c4.06,0.03,8.34-0.98,12.05-2.83c1.63-0.8,3.2-1.75,4.78-2.9c0,0.02,0,0.05-0.01,0.07c-0.1,1.27-0.25,2.59-0.45,3.99
		c-0.83,5.72-2.58,11.22-5.2,16.34c-2.82,5.52-6.56,10.47-11.13,14.72c-0.08,0.07-0.14,0.16-0.19,0.25
		c-2.26,1.88-4.56,3.54-6.83,4.93c-4.96,3.03-10.05,4.93-15.14,5.65c-5.33,0.78-11,0.22-16.42-1.63c-2.06-0.7-4.05-1.55-5.93-2.54
		c-0.65-0.34-1.28-0.69-1.91-1.06c-2.77-1.62-5.37-3.54-7.34-5.03c0,0,0,0,0,0c-0.38-0.29-0.91-0.23-1.23,0.12
		c-0.32,0.35-0.31,0.89,0.02,1.24c1.74,1.83,4.06,4.21,6.65,6.36c2.37,2,5.01,3.78,7.84,5.29c0.02,0.01,0.03,0.02,0.05,0.02
		c5.82,3.12,12.29,4.83,18.7,4.95c6.08,0.16,12.34-1.02,18.65-3.47c-0.01,0.02-0.02,0.04-0.03,0.06c-0.74,1.84-1.6,3.62-2.59,5.31
		c-1.48,2.53-3.28,4.93-5.35,7.13c-5.9,6.26-13.8,10.47-22.24,11.86c-0.19,0.03-0.37,0.13-0.51,0.27
		c-5.45,5.69-12.31,9.82-19.85,11.93c-8.01,2.24-16.2,2.18-24.17-0.18c-2.54-0.75-5.03-1.75-7.43-2.97
		c-0.02-0.01-0.04-0.02-0.06-0.03l1.65-254.5c3.13-0.99,6.37-1.49,9.63-1.47c4.8,0.03,9.41,1.15,13.63,3.27
		c1.9,0.95,3.72,2.11,5.44,3.46c-0.81,1.78-1.65,3.57-2.51,5.42c-1.68,3.6-3.76,8.09-5.18,12.91c-1.45,4.85-2.06,9.92-1.76,14.65
		c0.27,4.5,1.25,9.05,3.01,13.92c0.38,1.05,0.8,2.13,1.25,3.22c0.15,0.35,0.29,0.68,0.43,1c0.28,0.65,0.53,1.24,0.77,1.87
		c0.79,2.06,1.17,3.69,1.21,5.16c0.16,3.22-1.95,6.73-4.25,10.05c-1.33,1.9-2.78,3.82-4.19,5.68c-1.16,1.54-2.37,3.13-3.51,4.73
		c-2.99,4.11-5.25,7.62-7.13,11.06c-0.23,0.42-0.09,0.95,0.31,1.21c0.01,0.01,0.03,0.01,0.04,0.02c0.4,0.22,0.91,0.12,1.18-0.26
		c2.23-3.1,4.84-6.23,8.23-9.86c1.31-1.42,2.67-2.82,3.99-4.19c1.65-1.7,3.35-3.45,5-5.28c1.44-1.62,2.96-3.41,4.26-5.49
		c0.91-1.43,2-3.58,2.48-6.13c0.64-0.09,2.05-0.26,3.98-0.32c0,0.01,0.01,0.02,0.01,0.03c0.34,1.23,1.48,4.79,3.86,7.38
		c0.91,0.99,1.91,1.75,2.98,2.26c0.64,0.3,1.3,0.52,1.99,0.64c2.12,0.39,4.92,0.49,7.88,0.61c5.03,0.2,10.74,0.41,13.86,2.02
		l0.05,0.03l4.41,2.28v0l-1.95-4.63c-0.1-0.23-2.48-5.81-6.99-10.74c-2.31-2.52-4.73-4.4-7.24-5.65
		c-5.56-2.76-11.55-2.39-17.67,1.15c-1.02-0.04-3.17-0.08-4.96,0.02c-0.02,0-0.04,0-0.05,0c-0.15-1.49-0.43-2.84-0.71-3.98
		c-0.19-0.8-0.43-1.61-0.65-2.35c-0.09-0.32-0.18-0.63-0.26-0.91c-0.28-1-0.53-2-0.75-2.96c-0.95-4.17-1.31-8.08-1.08-11.63
		c0.23-3.65,1.11-7.18,2.69-10.8c1.53-3.53,3.65-7,5.87-10.55c0.96-1.52,1.94-3.08,2.91-4.67c1.19,0.52,2.35,1.08,3.49,1.69
		c3.41,1.8,6.59,3.96,9.5,6.45c3.56,3.04,6.71,6.54,9.35,10.41c0.8,1.16,1.57,2.41,2.31,3.73c-0.33,0.04-0.65,0.08-0.95,0.12
		c-4.37,0.62-8.71,2.1-12.54,4.3c-3.58,2.05-6.84,4.72-9.68,7.96c-2.54,2.89-4.76,6.24-6.59,9.95c-0.2,0.41-0.07,0.9,0.31,1.16
		c0.02,0.01,0.03,0.01,0.05,0.02c0.37,0.22,0.84,0.16,1.14-0.17c2.6-2.88,5.42-5.3,8.36-7.19c3.07-1.98,6.27-3.38,9.52-4.17
		c3.19-0.78,6.5-0.95,9.62-0.5c1.52,0.22,3.03,0.59,4.49,1.1c0.52,0.18,1.07,0.4,1.67,0.66c0,0.01,0.01,0.01,0.02,0.01
		c0.07,0.07,0.15,0.13,0.25,0.18c0.02,0.01,0.04,0.02,0.06,0.03c0.68,0.32,1.35,0.66,2.02,1.01c4.75,2.51,9.02,5.66,12.74,9.39
		c5.01,5.03,8.9,10.92,11.56,17.51c0.92,2.29,1.7,4.67,2.3,7.12c-3.97-1.78-8.33-2.7-12.94-2.73c-2.16-0.01-4.34,0.17-6.47,0.56
		c-5.72,1.01-11.28,3.21-16.99,6.72c-4.9,3.03-9.44,6.79-13.51,11.18c-2.04,2.21-3.88,4.51-5.47,6.83l-2.29,3.58
		c-0.01,0.01-0.01,0.02-0.02,0.04c-1.36-0.6-2.99-1.19-3.81-1.47c-0.01,0-0.03-0.01-0.05-0.02c-1.71-2.12-3.6-3.71-5.64-4.77
		c-4.52-2.35-9.78-2.12-15.54,0.76c-5.09,2.54-8.68,6.25-8.83,6.41l-2.96,3.09l0.09-0.01l4.16-0.46c2.97-0.33,7.58,1.24,11.64,2.61
		c2.39,0.81,4.65,1.58,6.46,1.92c1.57,0.29,3.2,0.03,4.84-0.79c2.7-1.35,4.7-3.86,5.33-4.72c0.9,0.37,1.63,0.72,2.19,1c0,0,0,0,0,0
		c0,0,0,0,0,0c-1.44,2.48-2.86,5.01-4.22,7.45c-1.28,2.28-2.55,4.55-3.85,6.8c-2.4,4.13-5.33,8.96-8.84,13.41
		c-3.79,4.79-7.61,8.28-11.67,10.66c-0.42,0.25-0.57,0.78-0.35,1.21c0.11,0.22,0.3,0.37,0.52,0.44c0.21,0.07,0.45,0.06,0.67-0.04
		c4.54-2.09,8.92-5.37,13.4-10.03c4.09-4.26,7.59-8.93,10.47-12.94c1.54-2.15,3.05-4.32,4.56-6.48c1.58-2.28,3.22-4.63,4.85-6.89
		c0.78-1.09,1.58-2.18,2.37-3.22l1.22-1.6l1.2-1.49c1.57-1.87,3.36-3.7,5.31-5.45c3.88-3.45,8.09-6.3,12.51-8.46
		c4.6-2.25,9.07-3.57,13.29-3.94c0,0.01,0,0.02,0.01,0.03c0.08,0.5,0.25,1.83,0.3,3.72c-1.09,0.3-4.35,1.33-6.71,3.5
		c-1.44,1.32-2.32,2.83-2.62,4.51c-0.35,1.92-0.45,4.45-0.55,7.14c-0.18,4.56-0.38,9.72-1.83,12.55l-2.08,4.04l0.09-0.04l4.1-1.73
		c0.21-0.09,5.26-2.24,9.72-6.33c7.33-6.72,8.73-14.51,4.07-22.56c0.03-1,0.08-3.17-0.04-4.85c2.66,0.24,5.17,0.93,7.37,2.04
		c0.3,0.15,0.6,0.31,0.89,0.48c3.35,1.95,6.13,5.02,8.23,9.13c0.03,0.06,0.07,0.12,0.12,0.18c3.25,6.82,4.96,14.14,5.09,21.76
		c0,0.2,0.02,0.4,0.03,0.6c0.01,0.21,0.03,0.41,0.03,0.62c-0.02,2.96-0.32,5.98-0.92,9.25c-1.05,5.69-3.03,11.14-5.87,16.19
		c-1.13,1.85-2.49,4-4.01,6.01c-2.03,2.67-4.05,4.68-6.17,6.14c-2.32,1.59-4.88,2.57-7.6,2.91l-0.25,0.03
		c-0.25,0.03-0.46,0.06-0.84,0.08c-0.32,0.02-0.7,0.04-1.06,0.04c-0.39,0.01-0.73,0-1.04-0.01l-1.18-0.08
		c-1.48-0.13-2.95-0.41-4.38-0.84c-1.31-0.39-2.66-0.93-4.06-1.63c-1.42-0.71-2.89-1.58-4.44-2.62
		C375.49,469.52,374.33,468.67,373.09,467.77z M356.65,381.09c-1.61-0.29-2.92-1.2-3.96-2.33c-2.56-2.8-3.54-7-3.54-7
		c10.19-0.51,20.08,4.94,20.08,4.94c-9.78-7.05-22.08-6.11-25.51-5.68c0.03-0.41,0.04-0.82,0.04-1.22c2.27-0.13,5.39,0.01,5.39,0.01
		c10.21-6.18,18.04-1.64,23.1,3.88c4.35,4.74,6.65,10.21,6.65,10.21C373.48,381.1,362.22,382.1,356.65,381.09z"/>
	<path class="st2" d="M330.05,543.38c0.31-0.31,0.35-0.8,0.1-1.16c-3.19-4.64-5.19-8.81-6.12-12.75c-0.52-2.19-0.74-4.4-0.64-6.56
		c0.05-1.13,0.18-2.24,0.38-3.23c0.04-0.23,0.1-0.53,0.17-0.83l0.19-0.77c0.13-0.49,0.28-1.01,0.47-1.57
		c1.34-3.99,3.75-7.78,7.18-11.26c2.94-3,6.61-5.74,11.54-8.62c0.38-0.22,0.55-0.68,0.4-1.09c-0.07-0.2-0.21-0.36-0.38-0.46
		c-0.18-0.11-0.4-0.16-0.62-0.13c-5.21,0.81-10.22,2.98-14.5,6.27c-4.53,3.5-7.96,8.21-9.66,13.26c-0.22,0.64-0.41,1.33-0.59,2.04
		l-0.27,1.22c-0.05,0.26-0.1,0.53-0.15,0.84c-0.23,1.52-0.32,2.91-0.3,4.27c0.07,2.88,0.62,5.66,1.64,8.24
		c1.93,4.96,5.48,9.36,10.01,12.41c0.02,0.01,0.03,0.01,0.05,0.02c0.14,0.08,0.3,0.13,0.45,0.13
		C329.63,543.66,329.87,543.56,330.05,543.38z M330.48,503.98c-3.62,3.67-6.18,7.7-7.61,11.95c-0.2,0.6-0.37,1.15-0.51,1.7
		l-0.2,0.84c-0.07,0.32-0.14,0.65-0.18,0.88c-0.21,1.05-0.35,2.26-0.41,3.48c-0.1,2.33,0.13,4.71,0.69,7.06
		c0.63,2.7,1.73,5.49,3.34,8.43c-2.17-2.31-3.89-5-5.02-7.89c-0.94-2.39-1.45-4.96-1.51-7.62c-0.03-1.25,0.07-2.54,0.28-3.96
		c0.04-0.28,0.09-0.52,0.13-0.75l0.26-1.15c0.16-0.66,0.35-1.3,0.55-1.89c1.58-4.72,4.79-9.12,9.04-12.4
		c2.49-1.92,5.25-3.43,8.14-4.49C334.73,500.06,332.45,501.96,330.48,503.98z"/>
	<path class="st2" d="M376.55,456.92c0.52,0.31,1.06,0.6,1.59,0.88c3.66,1.88,7.54,2.88,11.33,2.9c0,0,0,0,0,0
		c0.51,0,1.02-0.01,1.54-0.04c2.73-0.18,5.42-0.93,7.77-2.18c2.38-1.25,4.53-3.09,6.24-5.31c3.82-4.99,4.71-10.77,4.78-14.73
		c0.09-4.89-0.93-9.87-2.93-14.4c-0.08-0.19-0.23-0.33-0.4-0.43c-0.19-0.1-0.41-0.15-0.63-0.1c-0.42,0.09-0.72,0.47-0.72,0.9
		c0.06,4.4,0.06,9.06-0.7,13.53c-0.76,4.64-2.26,8.46-4.47,11.34c-2.34,3.11-5.69,5.19-9.69,6.03c-1.71,0.38-3.58,0.55-5.7,0.54
		c-2.11-0.01-4.4-0.21-7.43-0.62c-0.43-0.06-0.84,0.19-0.98,0.6C376.01,456.25,376.18,456.7,376.55,456.92z M406.96,429.79
		c0.73,2.82,1.08,5.73,1.03,8.61c-0.07,3.69-0.89,9.06-4.41,13.66c-1.55,2.02-3.5,3.68-5.65,4.81c-2.13,1.13-4.56,1.81-7.03,1.98
		c-0.47,0.03-0.95,0.04-1.41,0.04c0,0,0,0,0,0c-2.38-0.02-4.81-0.45-7.18-1.27c3.23,0.19,5.93,0.03,8.36-0.5
		c4.43-0.93,8.15-3.26,10.75-6.71c2.39-3.12,4-7.21,4.81-12.14C406.71,435.45,406.9,432.6,406.96,429.79z"/>
	<path class="st2" d="M297.93,363.6c-0.18-0.34-0.36-0.65-0.54-0.97l0.36-55.44c0-0.39-0.24-0.73-0.61-0.86
		c-3.5-1.24-7.14-1.88-10.82-1.91c-7.61-0.05-14.82,2.48-20.85,7.31c-0.32,0.26-0.43,0.7-0.27,1.07c0.87,2.01,1.79,4.03,2.73,6.12
		c1.6,3.57,3.6,8.01,4.92,12.73c1.33,4.67,1.85,9.52,1.5,14.04c-0.31,4.32-1.32,8.69-3.07,13.37c-0.38,1.01-0.8,2.06-1.26,3.11
		c-0.15,0.35-0.29,0.67-0.43,0.98c-0.3,0.67-0.57,1.29-0.83,1.93c-0.89,2.25-1.33,4.06-1.4,5.7c-0.24,3.76,1.99,7.63,4.44,11.24
		c1.32,1.95,2.76,3.9,4.15,5.79c0.78,1.06,1.58,2.15,2.37,3.25c-0.91-0.99-1.83-1.96-2.73-2.92c-1.61-1.71-3.28-3.47-4.88-5.29
		c-1.37-1.58-2.81-3.32-4.02-5.31c-0.93-1.5-2.08-3.86-2.3-6.62c-0.23-2.65,0.29-5.13,0.78-7.01c0.2-0.77,0.43-1.55,0.65-2.26
		c0.1-0.32,0.19-0.64,0.28-0.93c0.3-1.03,0.57-2.05,0.81-3.03c1.04-4.32,1.47-8.41,1.27-12.13c-0.2-3.87-1.08-7.62-2.69-11.44
		c-1.53-3.67-3.64-7.23-5.85-10.87c-1.06-1.74-2.16-3.54-3.25-5.37c-0.23-0.39-0.71-0.55-1.13-0.38c-5.22,2.12-10.03,5-14.29,8.55
		c-3.72,3.1-7.02,6.68-9.81,10.64c-1.09,1.55-2.15,3.26-3.15,5.07c-0.15,0.27-0.15,0.6-0.01,0.87c0.15,0.27,0.42,0.45,0.72,0.48
		c0.86,0.08,1.57,0.16,2.23,0.26c4.14,0.64,8.23,2.1,11.84,4.23c3.38,1.99,6.45,4.58,9.12,7.7c1.07,1.25,2.08,2.59,3.03,4.01
		c-1.28-1.1-2.61-2.1-3.96-2.99c-3.21-2.13-6.58-3.65-10.02-4.53c-3.41-0.88-6.95-1.11-10.31-0.67c-1.64,0.21-3.27,0.59-4.84,1.11
		c-0.65,0.21-1.33,0.48-2.09,0.8c-0.12,0.05-0.22,0.12-0.31,0.21c-5.7,2.66-10.81,6.18-15.2,10.47
		c-5.25,5.14-9.35,11.18-12.19,17.96c-1.24,2.95-2.22,6.06-2.94,9.25c-0.08,0.34,0.05,0.7,0.33,0.92c0.28,0.22,0.66,0.25,0.97,0.1
		l0.21-0.1c0.43-0.22,0.86-0.43,1.3-0.63c3.8-1.67,7.97-2.5,12.39-2.47c2.05,0.01,4.11,0.22,6.14,0.61
		c5.48,1.04,10.8,3.23,16.26,6.68c4.72,3.01,9.09,6.72,12.98,11.04c1.95,2.17,3.71,4.42,5.21,6.68l2.2,3.55
		c0.72,1.2,1.39,2.38,2.07,3.58c1.41,2.49,2.78,5.02,4.11,7.47c1.25,2.31,2.5,4.6,3.78,6.88c2.06,3.65,4.52,7.84,7.42,11.88
		c-3.3-3.75-6.16-7.7-8.58-11.16c-1.51-2.16-2.99-4.34-4.46-6.52c-1.56-2.3-3.17-4.68-4.78-6.98c-0.78-1.11-1.57-2.22-2.36-3.29
		l-1.22-1.63l-1.22-1.55c-1.6-1.96-3.42-3.88-5.43-5.71c-3.96-3.61-8.27-6.6-12.8-8.9c-4.93-2.49-9.75-3.96-14.31-4.35
		c-4.88-0.44-9.6,0.48-13.37,2.62c-3.63,2.04-6.64,5.25-8.95,9.54c-0.06,0.07-0.12,0.14-0.16,0.23c-3.52,7.07-5.43,14.7-5.66,22.67
		c-0.01,0.17-0.02,0.35-0.03,0.52c-0.02,0.25-0.04,0.5-0.04,0.75c-0.02,3.07,0.25,6.2,0.83,9.58c1.01,5.9,2.98,11.57,5.89,16.89
		c1.13,1.9,2.49,4.13,4.04,6.21c2.12,2.86,4.24,5.03,6.51,6.62c2.54,1.79,5.35,2.91,8.38,3.33L211,476c0.29,0.04,0.53,0.07,0.93,0.1
		c0.36,0.03,0.78,0.05,1.16,0.06c0.41,0.01,0.73,0.01,1.19,0l1.22-0.06c1.6-0.12,3.2-0.4,4.75-0.85c2.83-0.8,5.79-2.23,9.05-4.37
		c1.24-0.8,2.43-1.65,3.69-2.54c1.63-1.15,3.31-2.34,5.08-3.42c1.19-0.71,3-1.69,5-2.03c0.87-0.15,1.76-0.19,2.67-0.09
		c0.08,0.01,0.15,0.01,0.23,0.02c-0.08,0-0.15,0.01-0.23,0.01c-0.88,0.04-1.73,0.18-2.58,0.46c-1.41,0.45-2.78,1.25-4.44,2.59
		c-1.5,1.22-2.9,2.55-4.39,3.95c-1.1,1.04-2.24,2.12-3.43,3.15c-3.22,2.82-6.14,4.76-9.19,6.12c-1.74,0.78-3.57,1.38-5.43,1.79
		l-1.39,0.27c-0.47,0.08-1,0.16-1.48,0.21c-0.49,0.06-0.95,0.1-1.49,0.13c-0.35,0.03-1,0.05-1.45,0.05l-0.42,0
		c-3.77-0.02-7.75-1.02-11.21-2.79c-2.04-1.03-4-2.33-5.99-3.98c-0.27-0.23-0.66-0.27-0.98-0.12c-0.32,0.16-0.52,0.48-0.51,0.84
		c0.05,1.95,0.21,3.98,0.51,6.23c0.78,5.93,2.52,11.64,5.16,16.98c2.8,5.66,6.54,10.76,11.1,15.17c0.05,0.12,0.13,0.23,0.24,0.32
		c2.38,2.06,4.81,3.86,7.21,5.38c5.13,3.23,10.43,5.28,15.75,6.11c3.86,0.62,7.9,0.55,11.91-0.15c-0.28-1.03-0.62-2.46-0.9-3.62
		c-0.28-1.12-0.47-2.02-0.47-2.02c-7.28-7.09-5.21-14.52-1.74-19.88c2.98-4.6,7-7.67,7-7.67c-1.14,5.07,2.09,14.14,2.45,18.95
		c0.1,1.39-0.36,2.66-1.08,3.76c-1.76,2.71-5.02,4.41-5.02,4.41c-2.6-8.3-0.22-17.61-0.22-17.61c-2.99,8.76-1.21,17.03,1.2,23.46
		c1.4-0.29,2.79-0.66,4.17-1.11c2.23-0.73,4.38-1.62,6.42-2.67c-1.86,1.38-3.86,2.63-5.98,3.72c-5.62,2.92-11.84,4.49-17.99,4.52
		c-6.08,0.09-12.36-1.25-18.69-3.9c-0.23-0.1-0.46-0.2-0.69-0.31l-0.39-0.17c-0.33-0.14-0.71-0.08-0.98,0.16
		c-0.27,0.24-0.37,0.62-0.25,0.96c0.88,2.69,2.01,5.27,3.38,7.67c1.52,2.67,3.37,5.21,5.5,7.53c6.02,6.55,14.11,11.04,22.8,12.65
		c5.56,5.89,12.58,10.2,20.31,12.47c4.14,1.22,8.36,1.85,12.54,1.87c4.21,0.03,8.46-0.56,12.64-1.73c2.86-0.81,5.67-1.91,8.35-3.28
		c0.3-0.15,0.49-0.47,0.5-0.81l1.22-188.6c0.54,0.33,1.01,0.67,1.41,1.03l3.16,2.88l-0.58-4.24
		C301.27,373.76,300.55,368.65,297.93,363.6z M269.59,318.17c-0.84-1.85-1.66-3.66-2.44-5.45c5.59-4.29,12.2-6.53,19.16-6.48
		c3.26,0.02,6.49,0.56,9.61,1.59l-0.34,52.08c-4.25-5.5-10.1-7.41-17.15-5.51c-0.73-0.22-2.15-0.64-3.49-0.95
		c0.64-2.58,1.05-5.11,1.23-7.62c0.36-4.73-0.18-9.8-1.57-14.67C273.25,326.31,271.22,321.8,269.59,318.17z M217.55,388.2
		c0.71-2.18,2.28-5.49,2.28-5.49c-1.74-11.8,5.48-17.26,12.53-19.79c6.06-2.17,11.99-2.17,11.99-2.17
		c-4.68,3.91-8.12,14.68-11.21,19.42c-0.89,1.37-2.23,2.22-3.69,2.75c-3.57,1.28-7.82,0.55-7.82,0.55
		c3.48-9.6,12.34-16.6,12.34-16.6c-10.69,6.53-14.48,18.9-15.22,21.66C218.35,388.41,217.95,388.31,217.55,388.2z M236.74,409.5
		c-1.9,2.49-7.69,10.98-6.76,21.05c0,0,0.27-9.61,5.05-16.88c0,0,2.66,2.53,3.61,5.62c0.38,1.26,0.48,2.61,0,3.92
		c-1.66,4.53-7.27,12.36-7.56,17.54c0,0-3.02-4.05-4.62-9.3c-1.87-6.1-1.81-13.82,7.14-18.63c0,0,1.25-2.36,2.33-3.97
		C236.21,409.06,236.48,409.28,236.74,409.5z M294.27,562.33c-2.43,1.2-4.95,2.18-7.52,2.9c-8,2.25-16.19,2.21-24.17-0.14
		c-7.51-2.21-14.32-6.42-19.7-12.18c-0.13-0.15-0.31-0.24-0.51-0.28c-8.42-1.5-16.26-5.81-22.08-12.14
		c-2.04-2.23-3.81-4.65-5.26-7.2c-0.98-1.71-1.83-3.52-2.55-5.4c6.03,2.43,12.04,3.68,17.87,3.71c0.25,0,0.49,0,0.73,0
		c6.44-0.04,12.94-1.67,18.82-4.73c2.85-1.48,5.51-3.23,7.9-5.19c2.62-2.13,4.97-4.47,6.73-6.28c0.33-0.34,0.35-0.88,0.03-1.23
		c-0.31-0.36-0.85-0.42-1.23-0.13c-1.98,1.46-4.62,3.34-7.41,4.93c-2.45,1.42-5.1,2.6-7.88,3.5c-0.89,0.29-1.79,0.54-2.7,0.76
		c-0.23-0.61-0.54-1.48-0.85-2.56c0.92-0.53,3.64-2.24,5.29-4.77c1-1.54,1.44-3.13,1.33-4.72c-0.14-1.83-0.65-4.16-1.18-6.63
		c-0.92-4.19-1.95-8.94-1.3-11.86l0.94-4.17l-3.4,2.6c-0.17,0.13-4.26,3.29-7.36,8.06c-5.09,7.85-4.52,15.27,1.62,21.5
		c0.16,0.71,0.47,2.05,0.84,3.32c-3.27,0.42-6.53,0.4-9.68-0.11c-5.07-0.79-10.14-2.75-15.06-5.85c-2.25-1.42-4.53-3.1-6.76-5.02
		c-0.05-0.1-0.11-0.18-0.19-0.26c-4.5-4.3-8.18-9.3-10.93-14.86c-2.55-5.16-4.23-10.68-4.98-16.41c-0.19-1.44-0.33-2.78-0.41-4.07
		c1.56,1.16,3.13,2.14,4.74,2.96c3.7,1.9,7.97,2.97,12.02,2.99l0.44,0c0.47,0,1.17-0.02,1.57-0.05c0.56-0.03,1.06-0.08,1.57-0.14
		c0.5-0.06,1.06-0.14,1.59-0.23l1.44-0.28c1.99-0.44,3.95-1.08,5.8-1.91c3.23-1.43,6.29-3.47,9.65-6.41
		c1.21-1.05,2.36-2.14,3.48-3.19c1.46-1.38,2.84-2.68,4.29-3.86c1.47-1.18,2.66-1.88,3.85-2.27c0.7-0.22,1.38-0.34,2.12-0.37
		c0.81-0.05,1.6-0.03,2.35,0.05c1.56,0.18,3.05,0.7,4.33,1.53c1.24,0.78,2.43,1.91,3.54,3.36c0.18,0.23,0.44,0.35,0.72,0.36
		c0.01,0,0.01,0,0.02,0c0.5,0,0.91-0.4,0.92-0.91c0-0.23-0.08-0.44-0.22-0.6c-1.01-1.75-2.15-3.15-3.45-4.26
		c-1.47-1.27-3.29-2.21-5.24-2.71c-0.89-0.23-1.86-0.39-2.88-0.48c-1.02-0.11-2.11-0.07-3.14,0.11c-2.3,0.39-4.31,1.48-5.63,2.27
		c-1.84,1.12-3.55,2.33-5.2,3.5c-1.24,0.88-2.42,1.71-3.63,2.5c-3.11,2.04-5.9,3.39-8.55,4.14c-1.44,0.41-2.91,0.67-4.37,0.78
		l-1.16,0.06c-0.37,0-0.67,0.01-1.09,0c-0.35-0.01-0.73-0.03-1.07-0.05c-0.36-0.02-0.57-0.05-0.82-0.09l-0.24-0.03
		c-2.73-0.37-5.28-1.38-7.57-3.01c-2.1-1.48-4.1-3.51-6.09-6.22c-1.49-2.02-2.83-4.2-3.92-6.03c-2.79-5.11-4.7-10.59-5.67-16.29
		c-0.56-3.27-0.82-6.3-0.81-9.26c0-0.21,0.02-0.42,0.03-0.62c0.02-0.2,0.03-0.4,0.04-0.6c0.23-7.62,2.03-14.91,5.36-21.68
		c0.05-0.06,0.09-0.12,0.13-0.19c2.16-4.09,4.97-7.13,8.35-9.03c3.46-1.96,7.78-2.81,12.32-2.39c4.33,0.37,8.92,1.77,13.65,4.16
		c2.72,1.38,5.36,3.02,7.89,4.9c-0.88,1.29-1.82,2.99-2.25,3.78c-7.62,4.3-10.2,11.28-7.47,20.23c1.66,5.44,4.73,9.6,4.86,9.77
		l2.56,3.43l0.24-4.27c0.17-2.99,2.47-7.27,4.51-11.05c1.2-2.23,2.33-4.33,2.96-6.05c0.55-1.5,0.56-3.15,0.02-4.91
		c-0.88-2.89-3.03-5.28-3.77-6.04c0.63-1.01,1.19-1.78,1.58-2.3c0.43,0.37,0.86,0.74,1.28,1.13c1.94,1.77,3.7,3.63,5.24,5.51
		l2.39,3.13c0.78,1.05,1.56,2.16,2.33,3.25c1.61,2.29,3.21,4.66,4.76,6.96c1.47,2.18,2.95,4.37,4.47,6.54
		c2.83,4.04,6.26,8.75,10.3,13.07c4.42,4.72,8.76,8.05,13.27,10.2c0.12,0.06,0.26,0.09,0.39,0.09c0.01,0,0.01,0,0.02,0
		c0.5,0,0.91-0.4,0.92-0.91c0-0.38-0.23-0.71-0.56-0.85c-4-2.43-7.74-5.95-11.43-10.75c-3.45-4.5-6.32-9.36-8.66-13.53
		c-1.27-2.26-2.52-4.55-3.76-6.85c-1.34-2.46-2.72-5-4.13-7.5c-0.68-1.21-1.37-2.4-2.09-3.62l-1.08-1.78l-1.17-1.84
		c-1.56-2.33-3.36-4.65-5.37-6.89c-4.01-4.44-8.5-8.26-13.36-11.36c-3.76-2.38-7.47-4.17-11.2-5.43c0.17-0.64,0.56-1.99,1.24-3.76
		c1.24,0.16,5,0.51,8.33-0.69c2.03-0.73,3.57-1.89,4.6-3.46c1.18-1.8,2.36-4.34,3.62-7.03c2.13-4.56,4.54-9.74,7.24-11.99l3.85-3.22
		l-5.02,0c-0.26,0-6.32,0.03-12.6,2.28c-10.34,3.7-15.1,11.03-13.8,21.22c-0.5,1.08-1.6,3.54-2.17,5.36
		c-0.33-0.07-0.65-0.15-0.98-0.21c-2.13-0.41-4.3-0.63-6.47-0.64c-4.62-0.03-8.98,0.83-12.98,2.56c0.64-2.44,1.44-4.82,2.39-7.09
		c2.75-6.55,6.72-12.39,11.79-17.36c4.3-4.21,9.33-7.66,14.94-10.24c0.08-0.04,0.16-0.1,0.24-0.17c0.62-0.26,1.18-0.47,1.71-0.65
		c1.46-0.49,2.98-0.84,4.5-1.04c3.13-0.41,6.43-0.2,9.62,0.62c3.24,0.83,6.42,2.27,9.47,4.29c2.92,1.93,5.7,4.38,8.27,7.3
		c0.18,0.2,0.43,0.31,0.69,0.31c0.48-0.02,0.92-0.4,0.92-0.91c0-0.2-0.07-0.39-0.18-0.55c-1.77-3.68-3.91-7.01-6.39-9.89
		c-2.8-3.27-6.03-5.99-9.58-8.09c-3.8-2.25-8.12-3.79-12.48-4.46c-0.3-0.05-0.62-0.09-0.95-0.13c0.76-1.31,1.55-2.55,2.36-3.7
		c2.69-3.83,5.88-7.29,9.48-10.28c3.92-3.26,8.32-5.94,13.09-7.96c0.96,1.6,1.92,3.18,2.85,4.71c2.17,3.57,4.25,7.08,5.73,10.63
		c1.53,3.63,2.37,7.17,2.55,10.83c0.19,3.55-0.22,7.46-1.23,11.61c-0.23,0.96-0.5,1.95-0.79,2.95c-0.08,0.29-0.18,0.59-0.28,0.91
		c-0.23,0.74-0.48,1.55-0.68,2.34c-0.52,2.01-1.08,4.69-0.83,7.61c0.25,3.11,1.53,5.76,2.56,7.43c1.28,2.1,2.77,3.9,4.2,5.55
		c1.62,1.85,3.3,3.62,4.92,5.34c1.3,1.38,2.65,2.81,3.94,4.24c3.34,3.67,5.91,6.83,8.1,9.96c0.18,0.25,0.45,0.39,0.74,0.39
		c0.01,0,0.01,0,0.02,0c0.5,0,0.91-0.4,0.92-0.91c0-0.22-0.07-0.42-0.2-0.58c-1.82-3.41-4.02-6.91-6.91-11
		c-1.13-1.61-2.31-3.22-3.46-4.78c-1.38-1.88-2.81-3.82-4.11-5.73c-2.26-3.35-4.33-6.89-4.12-10.13c0.05-1.45,0.46-3.08,1.27-5.13
		c0.25-0.62,0.51-1.21,0.8-1.86c0.14-0.31,0.29-0.64,0.44-0.99c0.47-1.08,0.9-2.16,1.29-3.2c0.29-0.77,0.55-1.54,0.8-2.3
		c0.64,0.1,1.54,0.26,2.63,0.52c0.01,1.06,0.15,4.28,1.54,6.95c0.85,1.63,2.01,2.8,3.45,3.49c1.66,0.78,3.94,1.49,6.35,2.24
		c2.61,0.81,5.44,1.69,7.73,2.75L294.27,562.33z M282.08,366.96c-1.26-0.6-2.13-1.63-2.74-2.8c-1.49-2.87-1.36-6.54-1.36-6.54
		c8.5,1.84,15.43,8.51,15.43,8.51c-6.16-7.56-15.76-9.7-19.22-10.24l0.27-0.96c1.82,0.42,3.95,1.09,3.95,1.09
		c9.76-2.83,15.2,2.64,18.14,8.3c2.53,4.86,3.21,9.87,3.21,9.87C295.93,370.69,286.44,369.02,282.08,366.96z"/>
	<path class="st2" d="M285.83,517.54l-0.26-1.23c-0.17-0.72-0.36-1.4-0.56-2.05c-1.63-5.08-5-9.83-9.49-13.39
		c-4.24-3.34-9.22-5.58-14.42-6.46c-0.43-0.07-0.85,0.17-1.01,0.58c-0.15,0.41,0.01,0.87,0.38,1.1c4.89,2.94,8.52,5.73,11.42,8.77
		c3.38,3.52,5.75,7.34,7.04,11.35c0.18,0.56,0.33,1.08,0.45,1.57l0.18,0.78c0.06,0.3,0.12,0.6,0.16,0.83
		c0.19,0.99,0.3,2.1,0.34,3.24c0.07,2.16-0.18,4.37-0.73,6.56c-0.98,3.93-3.03,8.08-6.28,12.67c-0.25,0.36-0.22,0.84,0.09,1.16
		c0.18,0.18,0.41,0.28,0.65,0.28c0.17,0,0.35-0.05,0.5-0.15c4.57-2.98,8.18-7.34,10.17-12.28c1.05-2.57,1.64-5.34,1.74-8.22
		c0.04-1.35-0.03-2.75-0.24-4.27C285.92,518.07,285.87,517.8,285.83,517.54z M282.78,530.19c-1.16,2.88-2.92,5.55-5.12,7.83
		c1.64-2.92,2.78-5.69,3.44-8.39c0.59-2.35,0.85-4.72,0.78-7.05c-0.04-1.23-0.17-2.43-0.37-3.49c-0.04-0.23-0.1-0.56-0.17-0.88
		l-0.19-0.84c-0.13-0.55-0.29-1.1-0.49-1.7c-1.37-4.27-3.88-8.33-7.45-12.05c-1.95-2.04-4.2-3.97-6.91-5.89
		c2.88,1.09,5.62,2.64,8.09,4.59c4.21,3.33,7.36,7.78,8.88,12.51c0.19,0.6,0.37,1.24,0.52,1.9l0.24,1.15
		c0.04,0.23,0.09,0.47,0.13,0.75c0.19,1.42,0.27,2.72,0.23,3.96C284.29,525.25,283.75,527.81,282.78,530.19z"/>
	<path class="st2" d="M227.19,454.27c-3.04,0.38-5.33,0.54-7.44,0.53c-2.13-0.01-3.99-0.21-5.7-0.61c-3.99-0.89-7.31-3.02-9.61-6.16
		c-2.17-2.91-3.62-6.75-4.32-11.4c-0.7-4.48-0.65-9.15-0.53-13.54c0.01-0.43-0.28-0.81-0.71-0.91c-0.42-0.1-0.85,0.11-1.03,0.51
		c-2.06,4.5-3.14,9.46-3.11,14.36c0.02,3.97,0.83,9.75,4.59,14.79c1.68,2.25,3.81,4.11,6.17,5.39c2.34,1.28,5.01,2.07,7.74,2.28
		c0.52,0.04,1.03,0.06,1.54,0.06c0,0,0,0,0,0c4.34,0.03,8.83-1.22,12.97-3.61c0.38-0.22,0.55-0.67,0.41-1.08
		C228.03,454.47,227.62,454.21,227.19,454.27z M214.8,457.75C214.8,457.75,214.8,457.75,214.8,457.75c-0.47,0-0.94-0.02-1.41-0.06
		c-2.47-0.19-4.9-0.91-7.01-2.07c-2.13-1.16-4.06-2.85-5.59-4.88c-3.46-4.64-4.21-10.02-4.23-13.71c-0.01-2.88,0.38-5.79,1.14-8.6
		c0.02,2.81,0.18,5.67,0.62,8.47c0.74,4.94,2.31,9.05,4.66,12.2c2.56,3.49,6.25,5.86,10.67,6.85c2.42,0.57,5.12,0.76,8.35,0.61
		C219.61,457.36,217.18,457.77,214.8,457.75z"/>
	<path class="st1" d="M213.64,455.96c-4.42-0.99-8.11-3.36-10.67-6.85c-2.34-3.15-3.91-7.26-4.66-12.2
		c-0.44-2.8-0.59-5.66-0.62-8.47c-0.77,2.81-1.16,5.72-1.14,8.6c0.02,3.69,0.77,9.07,4.23,13.71c1.52,2.03,3.45,3.72,5.59,4.88
		c2.11,1.16,4.54,1.87,7.01,2.07c0.47,0.04,0.94,0.05,1.41,0.06c0,0,0,0,0,0c2.38,0.02,4.81-0.39,7.2-1.18
		C218.76,456.72,216.07,456.53,213.64,455.96z"/>
</g>
<text transform="matrix(1 0 0 1 138.3512 651.4805)"><tspan x="0" y="0" class="st3 st4 st5">CROP</tspan><tspan x="136.36" y="0" class="st6 st4 st5">CORTEX</tspan></text>
<rect x="674.26" y="136.12" class="st7" width="292.49" height="164.99"/>
<rect x="692.26" y="404.66" class="st8" width="322.48" height="145.09"/>
</svg>
